<?xml version="1.0" encoding="UTF-8"?>
<!DOCTYPE svg PUBLIC "-//W3C//DTD SVG 1.1//EN" "http://www.w3.org/Graphics/SVG/1.1/DTD/svg11.dtd">
<!-- Creator: CorelDRAW 2020 (64 Bit) -->
<svg xmlns="http://www.w3.org/2000/svg" xml:space="preserve" width="2107px" height="569px" version="1.1" shape-rendering="geometricPrecision" text-rendering="geometricPrecision" image-rendering="optimizeQuality" fill-rule="evenodd" clip-rule="evenodd"
viewBox="0 0 1771.8 478.9"
 xmlns:xlink="http://www.w3.org/1999/xlink"
 xmlns:xodm="http://www.corel.com/coreldraw/odm/2003">
 <defs>
   <mask id="id0">
     <linearGradient id="id1" gradientUnits="userSpaceOnUse" x1="93.18" y1="309.75" x2="157.8" y2="309.64">
      <stop offset="0" stop-opacity="0" stop-color="white"/>
      <stop offset="0.0901961" stop-opacity="1" stop-color="white"/>
      <stop offset="0.239216" stop-opacity="1" stop-color="white"/>
      <stop offset="0.309804" stop-opacity="0" stop-color="white"/>
      <stop offset="0.709804" stop-opacity="0" stop-color="white"/>
      <stop offset="0.8" stop-opacity="1" stop-color="white"/>
      <stop offset="0.94902" stop-opacity="1" stop-color="white"/>
      <stop offset="1" stop-opacity="0" stop-color="white"/>
     </linearGradient>
    <rect fill="url(#id1)" x="90.08" y="301.75" width="70.86" height="16"/>
   </mask>
 </defs>
 <g id="Camada_x0020_1">
  <metadata id="CorelCorpID_0Corel-Layer"/>
  <path fill="black" fill-rule="nonzero" d="M406.65 274.92c9.06,-22.77 18.19,-45.49 27.13,-68.3 4.91,-12.51 9.53,-25.13 14.22,-37.75 1.68,-4.43 6.7,-5.93 10.41,-8.43 27.6,-18.55 49.53,-48.59 68.69,-75.32 8.62,-12 17.06,-24.73 19.79,-39.24 2.73,-14.55 -1.57,-31.35 -13.97,-39.39 -5.38,-3.53 -11.56,-3.97 -17.2,-0.65 -13.67,8.1 -23.49,26.29 -31.46,39.42 -30.33,49.79 -51.13,104.08 -73.24,157.76 -9.86,24.04 -19.71,48.08 -30.92,71.54 -0.94,1.96 -1.92,3.93 -2.98,6.03 -5.2,0.77 -10.29,1.39 -15.38,2.26 -10.91,1.82 -21.71,4.11 -32.22,7.64 -8.55,2.87 -16.15,7.23 -22.48,13.67 -8.65,8.84 -9.02,18.15 -1.16,27.6 0.69,0.84 1.45,1.68 2.25,2.44 13.9,13.46 33.32,15.68 50.34,6.66 10.29,-5.46 18.84,-12.99 25.56,-22.41 3.82,-5.38 7.09,-11.2 10.33,-16.98 3.82,-6.84 1.82,-6.22 9.93,-6.18 15.13,0.03 30.26,0.22 45.39,0.72 16.94,0.62 33.89,1.64 50.84,2.59 6.26,0.36 12.51,0.94 18.77,1.49 9.56,0.83 19.12,1.71 28.65,2.69 11.57,1.2 23.1,2.54 34.63,3.85 7.52,0.88 15.02,1.79 22.54,2.66 1.64,0.18 3.31,0.25 4.95,0.14 1.64,-0.07 2.73,-1.3 2.84,-2.87 0.14,-2.11 -0.48,-4 -1.49,-5.82 -2.77,-4.94 -6.55,-8.91 -11.61,-11.49 -1.78,-0.87 -3.78,-1.6 -5.74,-1.78 -12.11,-1.27 -24.22,-2.44 -36.37,-3.42 -11.93,-1.02 -23.89,-1.89 -35.86,-2.66 -11.78,-0.72 -23.6,-1.67 -35.38,-1.78 -24.92,-0.29 -49.83,-0.07 -74.74,-0.07 -2,0 -4,-0.04 -6.51,-0.04 0.58,-1.89 0.94,-3.27 1.45,-4.58l0 0zm52.19 -134.09c9.68,-23.93 20.48,-47.31 32.33,-70.22 7.09,-13.71 14.99,-27.5 24.95,-39.35 2.95,-3.53 10.4,-13.68 15.75,-12.91 9.67,1.49 0.14,26.14 -2.07,30.87 -2.08,4.47 -4.48,8.91 -7.17,13.06 -16.8,26.26 -35.09,51.42 -56.19,74.48 -2.58,2.84 -5.16,5.71 -8.83,7.6 0.39,-1.16 0.76,-2.36 1.23,-3.53l0 0zm-92.55 159.44c-7.9,11.78 -17.43,21.78 -30.26,28.33 -3.28,1.67 -6.73,2.87 -10.4,3.49 -6.08,1.02 -8.55,-1.38 -7.61,-7.78 0.33,-2.26 1.46,-4.62 2.88,-6.44 2,-2.58 4.4,-4.94 6.98,-6.98 5.38,-4.29 11.6,-7.13 18.22,-8.87 5.49,-1.5 11.13,-2.48 16.69,-3.57 1.2,-0.22 2.44,-0.04 3.86,-0.04 -0.15,0.84 -0.11,1.46 -0.36,1.86l0 0zm158.12 -107.5c18.77,-4.37 33.46,-14.88 45.24,-29.75 1.5,-1.86 2.73,-3.97 3.82,-6.08 2,-3.96 1.68,-7.85 -0.76,-11.53 -0.91,-1.38 -2,-2.69 -3.2,-3.78 -7.17,-6.4 -15.42,-8.43 -24.66,-5.78 -8.11,2.36 -15.16,6.69 -21.27,12.47 -13.46,12.84 -20.99,28.48 -20.84,47.14 0.11,16.4 7.67,28.51 23.16,35.06 13.79,5.78 27.57,6.25 41.06,-0.95 4.73,-2.51 9.46,-5.05 13.93,-7.93 16.91,-10.94 31.86,-24.11 43.83,-40.18 1.96,-2.66 3.67,-5.53 5.31,-8.41 1.56,-2.72 0.29,-5.09 -1.97,-7.27 -1.05,-0.98 -2.25,-1.89 -3.6,-2.47 -0.73,-0.33 -1.53,-0.55 -2.33,-0.62 -0.98,-0.04 -1.16,0.14 -1.7,0.91 -3.53,4.8 -6.66,9.86 -10.37,14.55 -3.71,4.69 -7.71,9.16 -11.93,13.38 -10.22,10.22 -21.67,18.91 -34.22,26.07 -4.91,2.81 -10.37,4.73 -15.64,6.88 -2.94,1.16 -6.07,1.27 -9.24,1.34 -6.47,0.11 -10.83,-2.83 -13.78,-8.4 -4.04,-7.45 -4.58,-15.34 -3.49,-23.64 0.94,-0.4 1.78,-0.83 2.65,-1.01l0 0zm-0.61 -9.02c4.83,-15.57 13.85,-27.86 28.14,-36.01 2.37,-1.34 5.02,-2.18 7.64,-3.02 1.97,-0.58 4,-0.43 5.82,0.73 1.13,2.47 0.51,4.8 -0.69,6.91 -1.64,2.84 -3.31,5.71 -5.35,8.29 -6.36,8 -14.33,14.26 -22.91,19.68 -3.85,2.43 -7.82,4.8 -13.05,6.8 0.18,-1.67 0.18,-2.58 0.4,-3.38l0 0zm180.82 -15.79c-1.57,-2.58 -3.57,-4.62 -7.35,-4.25 -1.09,2.29 -2.18,4.58 -3.27,6.91 -7.49,16.04 -17.5,30.29 -30.73,42.18 -4.55,4.11 -9.5,7.61 -15.1,10.15 -3.01,1.38 -6.21,2.33 -9.56,2.66 -2.69,0.25 -4.62,-0.84 -5.75,-3.31 -1.45,-3.06 -2.11,-6.3 -2.32,-9.6 -0.51,-7.24 0.18,-14.37 1.74,-21.42 2.69,-12.33 7.24,-23.97 12.98,-35.17 1.28,-2.44 2.51,-4.95 3.6,-7.46 0.99,-2.29 1.1,-4.69 -0.14,-6.94 -1.53,-2.84 -3.82,-4.95 -6.73,-6.33 -2.76,-1.31 -5.02,-0.98 -7.02,1.27 -1.71,1.93 -3.23,4.04 -4.54,6.26 -6.11,10.14 -10.84,20.94 -13.9,32.4 -2.54,9.49 -3.96,19.13 -2.69,29.02 0.58,4.8 2.08,9.31 4.44,13.53 5.78,10.33 19.93,17.86 33.89,12.76 4.73,-1.74 9.1,-4.03 13.17,-6.94 4.8,-3.46 9.16,-7.42 13.2,-11.75 10.62,-11.49 18.73,-24.62 25.28,-38.77 0.4,-0.83 0.87,-1.67 1.01,-2.54 0.15,-0.87 0.22,-1.97 -0.18,-2.66l-0.03 0zm-51.9 -38.07c2.65,0.54 3.75,0.1 5.02,-2.22 2.84,-5.35 5.64,-10.77 8.4,-16.19 0.33,-0.61 0.47,-1.34 0.69,-2.07 -0.44,-0.87 -0.69,-1.89 -1.31,-2.47 -1.63,-1.46 -3.31,-2.98 -5.2,-3.97 -3.74,-2 -5.64,-1.6 -7.96,1.97 -2.91,4.47 -5.42,9.2 -8.08,13.82 -0.36,0.62 -0.47,1.38 -0.76,2.07 -0.62,1.53 -0.22,2.91 0.8,4.11 2.18,2.62 5.05,4.25 8.4,4.95l0 0zm125.29 34.36c-3.75,2.4 -5.38,6.11 -7.53,9.82 -2.58,4.44 -5.2,8.88 -7.89,13.24 -5.24,8.62 -10.73,17.13 -16.41,25.46 -7.23,10.62 -14.58,21.2 -22.76,31.13 -8.15,9.89 -17.02,19.89 -27.42,27.49 -2.11,1.57 -3.75,1.82 -4.95,1.17 -1.42,-0.73 -2.22,-2.77 -2.47,-5.39 -0.26,-2.4 -0.15,-4.83 0.07,-7.23 2.84,-32.77 13.42,-64.63 25.42,-94.89 12.99,-32.73 28.08,-64.51 44.37,-95.75 6.11,-11.75 12.55,-23.35 18.8,-35.06 0.99,-1.78 1.86,-3.6 2.77,-5.42 2.22,-2.37 0.36,-8.73 -2,-10.51 -4.77,-3.56 -8.8,4.62 -10.91,7.74 -9.31,13.83 -17.57,28.3 -25.9,42.74 -24.4,42.48 -43.86,87.9 -58.66,134.6 -4.69,14.76 -8.33,29.82 -9.85,45.27 -0.59,5.9 -0.62,11.75 0.47,17.64 1.53,8.37 3.34,15.75 12.98,17.31 17.86,2.95 30.62,-12.65 40.7,-24.95 20.18,-24.54 37.09,-51.49 52.95,-78.99 1.78,-3.01 3.56,-6 5.24,-9.09 2.65,-4.98 -2.37,-9.35 -7.02,-6.33l0 0zm147.72 4.51c-0.8,-1.6 -1.89,-3.16 -3.12,-4.47 -1.82,-1.89 -3.2,-1.67 -5.17,0.25 -5.45,5.21 -10.8,10.59 -16.47,15.57 -8.69,7.71 -17.82,14.91 -28.01,20.62 -4.54,2.55 -9.27,4.55 -14.29,5.93 -3.2,0.84 -6.44,1.6 -9.82,1.2 -2.03,-0.26 -3.53,-1.24 -3.89,-3.31 -0.44,-2.55 -1.05,-5.09 -0.94,-7.64 0.14,-4.76 0.54,-9.56 1.27,-14.29 0.83,-5.09 2.33,-10.04 3.23,-15.13 0.99,-5.53 -0.14,-10.66 -4.5,-14.55 -3.68,-3.31 -5.13,-2.54 -7.39,0.26 -0.69,0.83 -1.45,1.63 -2.25,2.43 -6.26,6.51 -12.4,13.13 -18.8,19.5 -6.19,6.07 -12.95,11.53 -20.59,15.78 -2.69,1.49 -5.67,2.58 -8.58,3.67 -0.95,0.37 -2.08,0.19 -3.09,0.22 -0.51,-4.58 -0.48,-5.67 1.12,-9.38 3.1,-7.24 7.5,-13.53 13.35,-18.8 5.93,-5.31 12.73,-7.97 20.8,-6.99 1.2,0.15 2.44,-0.1 3.6,-0.14 0.62,-2.51 -0.8,-3.86 -2,-5.17 -6.58,-7.12 -15.6,-10 -25.71,-5.74 -11.56,4.87 -19.64,13.67 -24.73,24.95 -2.83,6.22 -3.27,12.83 -0.22,19.31 2.44,5.13 6.11,9.16 10.91,12.18 3.24,2.07 6.73,2.84 10.59,2.37 4.83,-0.59 9.34,-2.26 13.38,-4.91 4.29,-2.84 8.47,-5.9 12.44,-9.2 4.22,-3.53 8.11,-7.5 12.15,-11.28 0.9,-0.8 1.92,-1.53 3.45,-2.76 -0.18,2.03 -0.25,3.27 -0.47,4.47 -0.88,4.84 -0.4,9.57 0.76,14.26 2.55,10.14 13.17,19.09 24.66,18.33 4.69,-0.3 9.2,-1.24 13.38,-3.2 5.17,-2.44 10.29,-4.99 15.2,-7.86 14.41,-8.47 26.77,-19.57 38.77,-31.06 1.97,-1.89 2.22,-2.98 0.98,-5.42l0 0zm145.66 -4.87c-11.79,3.09 -23.31,6.91 -34.33,12.22 -6.51,3.13 -12.73,6.69 -18.41,11.16 -1.31,1.02 -2.54,2.15 -3.78,3.28 -1.13,1.05 -1.63,2.4 -1.49,3.96 0.25,2.66 1.2,5.02 3.02,6.98 1.16,1.28 2.51,1.53 4,0.73 0.95,-0.51 1.82,-1.24 2.76,-1.78 4.99,-2.84 9.86,-5.86 14.99,-8.37 11.63,-5.67 24.04,-9.31 36.55,-12.47 0.69,-0.14 1.42,0 2.43,0 -0.51,2.58 -1.6,4.69 -2.43,6.84 -15.86,40.29 -31.72,80.59 -47.54,120.89 -1.56,3.96 -3.05,7.92 -4.43,11.92 -0.98,2.73 -0.51,4.19 1.96,5.57 3.6,2.07 7.53,2.94 11.71,2.25 2.51,-0.4 4.4,-1.63 5.38,-4.18 1.09,-2.91 2.4,-5.78 3.6,-8.66 18.52,-44.4 36.23,-89.1 53.76,-133.9 0.72,-1.86 1.52,-3.67 2.32,-5.57 1.86,-0.32 3.49,-0.69 5.13,-0.87 12.66,-1.45 25.31,-2.47 38.08,-2.62 15.89,-0.14 31.75,0.26 47.53,2.22 5.31,0.69 10.62,1.35 15.97,1.6 5.74,0.26 7.24,-1.6 6.54,-7.24 -0.14,-1.09 -0.47,-2.14 -0.76,-3.2 -0.8,-2.87 -2.55,-4.91 -5.46,-5.78 -2.29,-0.69 -4.58,-1.42 -6.91,-1.78 -13.52,-2.11 -27.16,-2.87 -40.84,-3.17 -8.83,-0.18 -17.71,0.04 -26.55,0.55 -4.47,0.26 -8.94,0.62 -13.41,0.98 -3.9,0.37 -8.15,1.35 -12.04,0.73 0.03,-1.71 1.31,-3.93 1.96,-5.56 0.69,-1.86 1.42,-3.71 2.11,-5.57 1.46,-3.74 2.87,-7.45 4.29,-11.16 2.84,-7.42 5.64,-14.84 8.48,-22.26 4.65,-12.33 9.27,-24.66 13.82,-37.06 2.25,-6.18 4.51,-12.36 6.72,-18.55 1.09,-3.09 2.22,-6.22 3.31,-9.31 0.33,-0.94 2.48,-8.87 3.13,-8.94 0.95,-0.11 1.86,-0.3 2.77,-0.33 13.41,-0.98 26.87,-2.15 40.33,-2.8 24.87,-1.2 49.82,-1.42 74.7,-0.04 10.51,0.58 20.98,1.67 31.42,2.8 6.62,0.69 13.16,1.86 19.71,2.77 2.87,0.4 4.29,-0.4 4.98,-3.1 1.2,-4.58 0.88,-9.12 -0.91,-13.56 -1.05,-2.66 -2.91,-4 -5.85,-4.18 -11.42,-0.77 -22.84,-1.71 -34.26,-2.48 -24.88,-1.67 -49.79,-1.05 -74.7,0.04 -6.66,0.29 -13.28,0.76 -19.89,1.27 -10.66,0.88 -21.32,1.93 -31.97,2.8 -18.4,1.42 -36.77,3.35 -54.92,6.84 -15.74,3.06 -31.42,6.33 -46.8,11.06 -16.4,5.05 -32.37,11.23 -47.32,19.89 -8,4.69 -15.27,10.33 -21.78,16.91 -3.27,3.31 -6.11,6.91 -8.48,10.91 -2.18,3.71 -3.45,7.71 -3.7,12.04 -1.46,23.09 20.62,9.35 31.09,4.87 11.09,-4.72 22.58,-8 34.66,-8.91 8,-0.62 15.82,0.33 23.46,2.88 8.76,2.91 14.25,8.91 16.76,17.67 1.82,6.26 2.26,12.66 1.78,19.17 -0.72,9.63 -3.56,18.73 -6.36,28.07 -1.96,0.51 -3.93,1.02 -5.89,1.53l0 0zm23.49 -43.79c-0.8,-2.8 -1.85,-5.53 -3.09,-8.14 -2.65,-5.57 -6.33,-10.62 -10.69,-14.99 -4.55,-4.51 -9.78,-8.25 -15.39,-11.38 -7.96,-4.47 -16.69,-6.66 -25.89,-7.13 -15.86,-0.87 -30.77,2.62 -44.8,9.86 -1.79,0.91 -3.57,1.82 -5.64,2.83 0.14,-1.85 1.34,-2.51 2.18,-3.27 7.6,-7.09 15.89,-13.16 25.13,-18 15.93,-8.37 32.77,-14.26 50.15,-18.66 21.46,-5.42 43.21,-9.45 65.28,-11.71 0.88,-0.11 1.78,-0.04 2.58,-0.04 0.19,0.59 0.44,0.99 0.33,1.24 -12.33,29.35 -24.69,58.7 -37.46,88.99 -1.31,-3.05 -1.74,-6.47 -2.69,-9.6l0 0zm221.16 47.86c-1.57,-2.58 -3.57,-4.62 -7.35,-4.25 -1.09,2.29 -2.18,4.58 -3.27,6.91 -7.5,16.04 -17.5,30.29 -30.74,42.18 -4.54,4.11 -9.49,7.61 -15.09,10.15 -3.02,1.38 -6.22,2.33 -9.56,2.66 -2.69,0.25 -4.62,-0.84 -5.75,-3.31 -1.45,-3.06 -2.11,-6.3 -2.33,-9.6 -0.51,-7.24 0.19,-14.37 1.75,-21.42 2.69,-12.33 7.24,-23.97 12.98,-35.17 1.28,-2.44 2.51,-4.95 3.6,-7.46 0.99,-2.29 1.09,-4.69 -0.14,-6.94 -1.53,-2.84 -3.82,-4.95 -6.73,-6.33 -2.76,-1.31 -5.02,-0.98 -7.02,1.27 -1.71,1.93 -3.24,4.04 -4.55,6.26 -6.11,10.14 -10.83,20.94 -13.89,32.4 -2.54,9.49 -3.96,19.13 -2.69,29.02 0.58,4.8 2.07,9.31 4.44,13.53 5.78,10.33 19.93,17.86 33.89,12.76 4.73,-1.74 9.09,-4.03 13.17,-6.94 4.8,-3.46 9.16,-7.42 13.2,-11.75 10.62,-11.49 18.73,-24.62 25.27,-38.77 0.41,-0.83 0.88,-1.67 1.02,-2.54 0.15,-0.87 0.22,-1.97 -0.18,-2.66l-0.03 0zm-51.9 -38.07c2.65,0.54 3.74,0.1 5.02,-2.22 2.83,-5.35 5.63,-10.77 8.4,-16.19 0.33,-0.61 0.47,-1.34 0.69,-2.07 -0.44,-0.87 -0.69,-1.89 -1.31,-2.47 -1.64,-1.46 -3.31,-2.98 -5.2,-3.97 -3.75,-2 -5.64,-1.6 -7.97,1.97 -2.9,4.47 -5.41,9.2 -8.07,13.82 -0.36,0.62 -0.47,1.38 -0.76,2.07 -0.62,1.53 -0.22,2.91 0.8,4.11 2.18,2.62 5.05,4.25 8.4,4.95l0 0zm176.89 -120.56c-3.05,-4 -5.64,-3.57 -7.53,1.09 -3.09,7.49 -6.22,14.98 -9.12,22.55 -6.37,16.72 -13.61,33.05 -21.9,48.91 -4.44,8.47 -8.91,16.98 -13.42,25.42 -9.24,17.24 -18.36,34.48 -27.82,51.61 -7.31,13.27 -15.82,25.75 -25.86,37.17 -3.27,3.74 -6.76,7.31 -11.02,9.96 -0.69,0.4 -1.6,0.44 -2.54,0.65 -1.02,-5.56 -0.08,-10.65 0.58,-15.74 1.42,-11.2 5.49,-21.39 11.71,-30.73 2.15,-3.24 4.69,-6.19 7.89,-8.44 4.73,-3.31 9.82,-5.06 15.6,-2.69 0.22,0.11 0.62,-0.22 0.95,-0.33 0.11,-0.36 0.4,-0.73 0.33,-1.02 -1.82,-6.65 -8.41,-12.14 -15.17,-12.73 -9.6,-0.83 -17.42,2.84 -23.46,10 -12.36,14.62 -17.31,31.94 -16.87,50.77 0.25,11.57 6.87,19.1 17.24,23.53 5.05,2.15 10.14,1.9 14.87,-0.87 2.55,-1.49 5.02,-3.27 7.02,-5.34 3.67,-3.86 7.27,-7.86 10.44,-12.15 5.02,-6.84 9.64,-13.97 14.44,-20.95 0.43,-0.62 1.02,-1.16 1.56,-1.74 -0.36,3.3 -1.31,6.25 -2.22,9.23 -6.76,21.86 -11.71,44.12 -15.53,66.7 -1.89,11.24 -3.78,22.51 -4.98,33.86 -0.29,2.76 -0.55,5.53 -0.47,8.29 0.03,2.55 1.27,4.69 3.78,5.57 3.42,1.16 6.84,1.52 10.15,-0.77 0.43,-2.91 1.01,-5.78 1.34,-8.69 2,-19.09 5.57,-37.93 9.46,-56.66 8.18,-39.28 21.2,-77.06 35.97,-114.27 5.92,-14.87 12.18,-29.64 18.25,-44.48 1.17,-2.91 1.93,-6 3.35,-8.76 6.4,-12.69 10.84,-26.22 16.29,-39.28 3.09,-7.35 1.13,-13.78 -3.31,-19.67l0 0zm-14.76 183.44c18.76,-4.37 33.46,-14.88 45.24,-29.75 1.49,-1.86 2.73,-3.97 3.82,-6.08 2,-3.96 1.67,-7.85 -0.77,-11.53 -0.91,-1.38 -2,-2.69 -3.2,-3.78 -7.16,-6.4 -15.42,-8.43 -24.65,-5.78 -8.12,2.36 -15.17,6.69 -21.28,12.47 -13.46,12.84 -20.98,28.48 -20.84,47.14 0.11,16.4 7.68,28.51 23.17,35.06 13.78,5.78 27.56,6.25 41.06,-0.95 4.72,-2.51 9.45,-5.05 13.93,-7.93 16.91,-10.94 31.85,-24.11 43.82,-40.18 1.96,-2.66 3.67,-5.53 5.31,-8.41 1.56,-2.72 0.29,-5.09 -1.97,-7.27 -1.05,-0.98 -2.25,-1.89 -3.6,-2.47 -0.72,-0.33 -1.52,-0.55 -2.32,-0.62 -0.98,-0.04 -1.17,0.14 -1.71,0.91 -3.53,4.8 -6.66,9.86 -10.37,14.55 -3.71,4.69 -7.71,9.16 -11.93,13.38 -10.22,10.22 -21.67,18.91 -34.22,26.07 -4.91,2.81 -10.36,4.73 -15.64,6.88 -2.94,1.16 -6.07,1.27 -9.23,1.34 -6.48,0.11 -10.84,-2.83 -13.79,-8.4 -4.03,-7.45 -4.58,-15.34 -3.49,-23.64 0.95,-0.4 1.78,-0.83 2.66,-1.01l0 0zm-0.62 -9.02c4.84,-15.57 13.85,-27.86 28.15,-36.01 2.36,-1.34 5.02,-2.18 7.63,-3.02 1.97,-0.58 4,-0.43 5.82,0.73 1.13,2.47 0.51,4.8 -0.69,6.91 -1.63,2.84 -3.31,5.71 -5.34,8.29 -6.37,8 -14.33,14.26 -22.92,19.68 -3.85,2.43 -7.81,4.8 -13.05,6.8 0.18,-1.67 0.18,-2.58 0.4,-3.38l0 0zm177.84 -19.5c-3.75,2.4 -5.38,6.11 -7.53,9.82 -2.58,4.44 -5.2,8.88 -7.89,13.24 -5.24,8.62 -10.73,17.13 -16.4,25.46 -7.24,10.62 -14.59,21.2 -22.77,31.13 -8.15,9.89 -17.02,19.89 -27.42,27.49 -2.11,1.57 -3.75,1.82 -4.95,1.17 -1.42,-0.73 -2.22,-2.77 -2.47,-5.39 -0.26,-2.4 -0.15,-4.83 0.07,-7.23 2.84,-32.77 13.42,-64.63 25.42,-94.89 12.99,-32.73 28.08,-64.51 44.37,-95.75 6.11,-11.75 12.55,-23.35 18.8,-35.06 0.99,-1.78 1.86,-3.6 2.77,-5.42 2.22,-2.37 0.36,-8.73 -2,-10.51 -4.77,-3.56 -8.8,4.62 -10.91,7.74 -9.31,13.83 -17.57,28.3 -25.9,42.74 -24.4,42.48 -43.86,87.9 -58.66,134.6 -4.69,14.76 -8.33,29.82 -9.85,45.27 -0.59,5.9 -0.62,11.75 0.47,17.64 1.53,8.37 3.34,15.75 12.98,17.31 17.86,2.95 30.62,-12.65 40.7,-24.95 20.18,-24.54 37.09,-51.49 52.95,-78.99 1.78,-3.01 3.56,-6 5.24,-9.09 2.65,-4.98 -2.37,-9.35 -7.02,-6.33l0 0zm166.93 8.22c-4.55,-4.4 -12.51,-0.14 -17.21,1.82 -13.2,5.57 -26.87,10.11 -40.22,15.31 -3.09,1.2 -3.71,-0.83 -5.45,-3.27 -1.53,-2.15 -2.99,-4.33 -4.73,-6.29 -2.69,-3.13 -5.68,-6.19 -8.26,-9.24 -6,-7.09 -2.65,-17.97 2.62,-23.24 5.49,-5.53 15.71,-8.8 23.86,-7.53 1.85,0.29 4.07,0.73 4.11,-1.6 0.03,-1.6 -0.95,-2.98 -1.97,-4.11 -5.92,-6.29 -13.27,-8.51 -21.63,-6.83 -6.8,1.38 -12.81,4.69 -18.08,9.23 -2.98,2.55 -5.16,5.71 -6.98,9.17 -3.09,5.89 -3.02,11.71 0.07,17.49 0.62,1.16 1.35,2.29 2.07,3.38 -0.61,1.28 -1.2,2.55 -1.82,3.86 -7.49,16.04 -17.49,30.29 -30.73,42.18 -4.54,4.11 -9.49,7.61 -15.09,10.15 -3.05,1.38 -6.22,2.33 -9.56,2.66 -2.69,0.25 -4.62,-0.84 -5.75,-3.31 -1.45,-3.06 -2.11,-6.3 -2.33,-9.6 -0.51,-7.24 0.18,-14.37 1.75,-21.42 2.69,-12.33 7.24,-23.97 12.98,-35.17 1.28,-2.44 2.51,-4.91 3.6,-7.46 0.98,-2.29 1.09,-4.69 -0.14,-6.94 -1.53,-2.84 -3.82,-4.95 -6.73,-6.33 -2.76,-1.31 -5.02,-0.98 -7.02,1.27 -1.71,1.93 -3.24,4.04 -4.55,6.26 -6.11,10.14 -10.83,20.94 -13.89,32.4 -2.54,9.49 -3.96,19.13 -2.69,29.02 0.58,4.8 2.07,9.31 4.44,13.53 5.78,10.33 19.93,17.86 33.89,12.76 4.73,-1.7 9.09,-4.03 13.17,-6.94 4.8,-3.46 9.16,-7.42 13.2,-11.75 10.11,-10.91 17.89,-23.35 24.26,-36.69 0.65,0.69 1.31,1.38 2,2.03 2.61,2.66 5.09,5.17 6.76,8.55 0.84,1.64 1.49,3.35 1.93,5.13 0.11,0.58 1.2,5.16 0.69,5.42 -1.78,0.87 -3.42,1.71 -5.06,2.51 -8.76,4.32 -17.34,9.02 -25.56,14.36 -3.89,2.51 -7.46,5.42 -10.26,9.17 -3.16,4.25 -2.62,8.87 1.46,12.25 14.87,12.29 37.67,3.17 48.91,-9.38 4.84,-5.42 7.57,-11.75 7.38,-19.17 -0.03,-0.91 -0.03,-4.22 -0.03,-5.42 0.91,-0.54 1.34,-0.87 1.85,-1.09 7.46,-3.09 15.02,-6.07 22.62,-8.91 7.75,-2.4 15.42,-5.53 22.99,-8.58 3.16,-1.27 14.4,-4.51 9.13,-9.64l0 0zm-79.18 46.26c-4.07,5.09 -10.03,9.75 -16.14,12 -1.86,0.7 -8.08,2.88 -9.57,0.77 -0.33,-0.44 -0.44,-1.09 -0.25,-1.97 1.67,-7.63 9.85,-11.74 16.25,-14.94 2.11,-1.06 4.26,-2 6.44,-2.84 1.38,-0.55 3.24,-1.64 4.73,-1.78 4.11,-0.33 -0.33,7.31 -1.46,8.76l0 0zm-55.71 -88.84c2.65,0.54 3.74,0.1 5.02,-2.22 2.83,-5.35 5.63,-10.77 8.4,-16.19 0.33,-0.61 0.47,-1.34 0.69,-2.07 -0.44,-0.87 -0.69,-1.89 -1.31,-2.47 -1.64,-1.46 -3.31,-2.98 -5.2,-3.97 -3.75,-2 -5.64,-1.6 -7.97,1.97 -2.91,4.47 -5.42,9.2 -8.07,13.82 -0.36,0.62 -0.47,1.38 -0.76,2.07 -0.62,1.53 -0.22,2.91 0.8,4.11 2.22,2.62 5.05,4.25 8.4,4.95l0 0z"/>
  <path fill="black" fill-rule="nonzero" d="M25.14 0l51.59 0 0.97 0 13.25 0 4.88 0 0 14.02c-3.72,0 -7.91,3.26 -11.45,7.66 -3.03,3.75 -5.42,8.15 -6.68,12.14l0 244.36c0.33,4.94 3.34,11.56 7.64,16.9 3.55,4.4 7.74,7.66 11.45,7.66l101.49 0c3.72,0 7.91,-3.26 11.45,-7.66 4.56,-5.66 7.68,-12.76 7.68,-17.77l0 0 -0.03 1.12 11.42 0 0 24.31 0 14.02 -11.42 0 0 0 -19.1 0 -101.49 0 -19.09 0 -58.59 0 -0.98 0 -13.35 0 -4.76 0 0 -14.02c3.72,0 7.9,-3.26 11.45,-7.66 3.01,-3.74 5.39,-8.11 6.66,-12.09l0 -249.13c-1.26,-4 -3.65,-8.39 -6.68,-12.14 -3.54,-4.4 -7.73,-7.67 -11.45,-7.67l0 -14.01 4.88 0 0 -0.04 13.25 0 7.01 0zm192.24 278.43l0 24.31 0 0 0 -24.31zm-153.7 -264.41l-31.53 0 0 288.72 31.53 0 0 -288.72z"/>
  <polygon fill="#7A5804" mask="url(#id0)" points="91.07,302.74 159.95,302.74 159.95,316.76 91.07,316.76 "/>
  <path fill="white" fill-rule="nonzero" d="M102.82 458.62l68.06 0 0 -9.13c-1.45,-0.4 -2.9,-1.11 -4.32,-2.06 -2.29,-1.53 -4.53,-3.71 -6.54,-6.22 -1.6,-1.98 -3.04,-4.14 -4.24,-6.32 -1.23,-2.23 -2.22,-4.51 -2.91,-6.67l-0.12 -0.39c0,-77.9 -4.32,-168.64 0.01,-244.94 0.19,-2.77 1.1,-5.97 2.55,-9.17 1.42,-3.14 3.37,-6.34 5.67,-9.19 2.02,-2.5 4.26,-4.69 6.54,-6.22 2.28,-1.52 4.64,-2.43 6.96,-2.43l77.64 0c2.31,0 4.68,0.91 6.96,2.43 2.28,1.53 4.52,3.72 6.54,6.22 1.07,1.33 2.07,2.74 2.98,4.18l0 -12.83 5.25 0 0 24.31 6.16 0 0 -33.07 -199.68 0 0 9.13c1.45,0.4 2.9,1.11 4.32,2.06 2.29,1.53 4.53,3.72 6.54,6.22 1.6,1.98 3.02,4.12 4.22,6.29 1.21,2.19 2.2,4.46 2.9,6.64l0.13 0.42 0 249.91 -0.12 0.39c-0.69,2.16 -1.68,4.44 -2.91,6.68 -1.2,2.17 -2.63,4.33 -4.24,6.32 -2.01,2.5 -4.25,4.68 -6.54,6.21 -1.42,0.95 -2.87,1.66 -4.32,2.06l0 9.13 4.88 0 0 0.04 17.63 0zm51.6 5.26l-74.48 0 0 -0.04 -4.89 0 0 -19.27 2.63 0c1.22,0 2.6,-0.57 4.04,-1.53 1.82,-1.22 3.66,-3.03 5.37,-5.15 1.4,-1.74 2.66,-3.64 3.72,-5.56 0.99,-1.79 1.79,-3.61 2.38,-5.35l0 -248.34c-0.58,-1.7 -1.39,-3.5 -2.38,-5.3 -1.05,-1.91 -2.31,-3.79 -3.7,-5.53 -1.71,-2.11 -3.55,-3.93 -5.38,-5.15 -1.43,-0.95 -2.81,-1.52 -4.03,-1.52l0 0 0 -19.27 207.57 0 0 43.58 -14.05 0 0 -1.48 -2.59 0.03 0 -0.06c-0.01,-2.13 -0.7,-4.78 -1.9,-7.55 -1.26,-2.92 -3.06,-5.92 -5.2,-8.58 -1.7,-2.11 -3.55,-3.93 -5.37,-5.15 -1.43,-0.95 -2.81,-1.52 -4.04,-1.52l-77.64 0c-1.23,0 -2.61,0.57 -4.04,1.52 -1.82,1.22 -3.67,3.04 -5.37,5.15 -2.02,2.5 -3.73,5.31 -4.98,8.06 -1.17,2.6 -1.92,5.12 -2.08,7.23l0 243.92c0.58,1.74 1.39,3.56 2.37,5.35 1.06,1.92 2.32,3.82 3.72,5.56 1.71,2.12 3.55,3.93 5.38,5.15 1.43,0.96 2.81,1.52 4.03,1.52l2.63 0 0 19.28 -21.72 0zm-13.06 -14.02l-34.16 0 0 -293.98 36.79 0 0 293.98 -2.63 0zm-28.9 -5.26l26.27 0 0 -283.46 -26.27 0 0 283.46z"/>
  <path fill="black" fill-rule="nonzero" d="M102.82 461.25l51.6 0 0.96 0 13.25 0 4.88 0 0 -14.02c-3.72,0 -7.91,-3.26 -11.45,-7.66 -3.03,-3.76 -5.42,-8.15 -6.68,-12.14l0 -244.36c0.33,-4.94 3.34,-11.56 7.64,-16.9 3.55,-4.4 7.74,-7.66 11.46,-7.66l77.64 0c3.72,0 7.91,3.26 11.46,7.66 4.56,5.66 7.67,12.76 7.67,17.77l0 0 -0.03 -1.12 11.42 0 0 -24.31 0 -14.02 -11.42 0 0 0 -19.1 0 -77.64 0 -19.1 0 -58.59 0 -0.98 0 -13.35 0 -4.76 0 0 14.02c3.72,0 7.91,3.26 11.45,7.66 3.01,3.74 5.39,8.11 6.66,12.08l0 249.14c-1.26,3.99 -3.65,8.39 -6.68,12.14 -3.54,4.4 -7.73,7.66 -11.45,7.66l0 14.02 4.88 0 0 0.04 13.25 0 7.01 0zm168.4 -278.43l0 -24.31 0 0 0 24.31zm-129.86 264.41l-31.53 0 0 -288.72 31.53 0 0 288.72z"/>
  <path fill="black" fill-rule="nonzero" d="M410.09 428.44c0,-2.43 0.54,-4.54 1.61,-6.34 1.08,-1.8 2.5,-3.31 4.28,-4.52 1.77,-1.22 3.79,-2.13 6.06,-2.73 2.26,-0.61 4.59,-0.91 6.97,-0.91 2.38,0 4.71,0.3 6.97,0.91 2.27,0.6 4.29,1.51 6.07,2.73 1.77,1.21 3.21,2.72 4.3,4.52 1.1,1.8 1.65,3.91 1.65,6.34l0 21.94c0,2.42 -0.55,4.55 -1.65,6.37 -1.09,1.82 -2.53,3.34 -4.3,4.56 -1.78,1.21 -3.8,2.12 -6.07,2.73 -2.26,0.61 -4.59,0.91 -6.97,0.91 -2.38,0 -4.71,-0.3 -6.97,-0.91 -2.27,-0.61 -4.29,-1.52 -6.06,-2.73 -1.78,-1.22 -3.2,-2.74 -4.28,-4.56 -1.07,-1.82 -1.61,-3.95 -1.61,-6.37l0 -21.94zm2.73 21.94c0,1.96 0.47,3.69 1.4,5.18 0.94,1.5 2.15,2.73 3.65,3.72 1.49,0.98 3.21,1.71 5.15,2.2 1.94,0.49 3.94,0.74 5.99,0.74 2.01,0 3.99,-0.25 5.96,-0.74 1.96,-0.49 3.7,-1.22 5.22,-2.2 1.52,-0.99 2.74,-2.22 3.68,-3.72 0.93,-1.49 1.4,-3.22 1.4,-5.18l0 -21.94c0,-2.1 -0.47,-3.9 -1.4,-5.39 -0.94,-1.5 -2.18,-2.73 -3.72,-3.68 -1.54,-0.96 -3.29,-1.66 -5.25,-2.11 -1.96,-0.44 -3.95,-0.66 -5.96,-0.66 -2.01,0 -3.98,0.23 -5.92,0.7 -1.94,0.47 -3.66,1.19 -5.15,2.17 -1.5,0.98 -2.71,2.21 -3.65,3.68 -0.93,1.47 -1.4,3.24 -1.4,5.29l0 21.94zm63.35 -35.74c2.25,0 4.36,0.25 6.34,0.77 1.99,0.51 3.74,1.33 5.26,2.45 1.52,1.12 2.71,2.56 3.57,4.31 0.87,1.75 1.3,3.84 1.3,6.27l0 22.08c0,2.42 -0.43,4.5 -1.3,6.23 -0.86,1.73 -2.05,3.16 -3.57,4.28 -1.52,1.12 -3.27,1.93 -5.26,2.45 -1.98,0.51 -4.09,0.77 -6.34,0.77l-17.24 0 0 -49.61 17.24 0zm0 46.88c1.87,0 3.65,-0.21 5.33,-0.63 1.68,-0.42 3.14,-1.07 4.38,-1.93 1.24,-0.86 2.22,-2 2.94,-3.4 0.73,-1.4 1.09,-3.08 1.09,-5.04l0 -22.08c0,-1.96 -0.36,-3.64 -1.09,-5.04 -0.72,-1.41 -1.7,-2.55 -2.94,-3.44 -1.24,-0.89 -2.7,-1.54 -4.38,-1.96 -1.68,-0.42 -3.46,-0.63 -5.33,-0.63l-14.5 0 0 44.15 14.5 0zm26.56 -33.08c0,-2.43 0.54,-4.54 1.61,-6.34 1.08,-1.8 2.5,-3.31 4.28,-4.52 1.77,-1.22 3.79,-2.13 6.06,-2.73 2.27,-0.61 4.59,-0.91 6.97,-0.91 2.39,0 4.71,0.3 6.98,0.91 2.26,0.6 4.28,1.51 6.06,2.73 1.77,1.21 3.21,2.72 4.31,4.52 1.09,1.8 1.64,3.91 1.64,6.34l0 21.94c0,2.42 -0.55,4.55 -1.64,6.37 -1.1,1.82 -2.54,3.34 -4.31,4.56 -1.78,1.21 -3.8,2.12 -6.06,2.73 -2.27,0.61 -4.59,0.91 -6.98,0.91 -2.38,0 -4.7,-0.3 -6.97,-0.91 -2.27,-0.61 -4.29,-1.52 -6.06,-2.73 -1.78,-1.22 -3.2,-2.74 -4.28,-4.56 -1.07,-1.82 -1.61,-3.95 -1.61,-6.37l0 -21.94zm2.74 21.94c0,1.96 0.46,3.69 1.4,5.18 0.93,1.5 2.15,2.73 3.64,3.72 1.5,0.98 3.21,1.71 5.15,2.2 1.94,0.49 3.94,0.74 5.99,0.74 2.01,0 4,-0.25 5.96,-0.74 1.96,-0.49 3.7,-1.22 5.22,-2.2 1.52,-0.99 2.75,-2.22 3.68,-3.72 0.93,-1.49 1.4,-3.22 1.4,-5.18l0 -21.94c0,-2.1 -0.47,-3.9 -1.4,-5.39 -0.93,-1.5 -2.17,-2.73 -3.71,-3.68 -1.55,-0.96 -3.3,-1.66 -5.26,-2.11 -1.96,-0.44 -3.95,-0.66 -5.96,-0.66 -2.01,0 -3.98,0.23 -5.92,0.7 -1.94,0.47 -3.65,1.19 -5.15,2.17 -1.49,0.98 -2.71,2.21 -3.64,3.68 -0.94,1.47 -1.4,3.24 -1.4,5.29l0 21.94zm78.27 -35.74l2.73 0 0 49.61 -3.99 0 -28.17 -45.41 0 45.41 -2.73 0 0 -49.61 3.43 0 28.73 46.18 0 -46.18zm46.04 2.73l-16.54 0 0 46.88 -2.73 0 0 -46.88 -16.54 0 0 -2.73 35.81 0 0 2.73zm4.49 11.07c0,-2.43 0.53,-4.54 1.61,-6.34 1.07,-1.8 2.5,-3.31 4.27,-4.52 1.78,-1.22 3.8,-2.13 6.06,-2.73 2.27,-0.61 4.59,-0.91 6.98,-0.91 2.38,0 4.7,0.3 6.97,0.91 2.27,0.6 4.29,1.51 6.06,2.73 1.78,1.21 3.21,2.72 4.31,4.52 1.1,1.8 1.65,3.91 1.65,6.34l0 21.94c0,2.42 -0.55,4.55 -1.65,6.37 -1.1,1.82 -2.53,3.34 -4.31,4.56 -1.77,1.21 -3.79,2.12 -6.06,2.73 -2.27,0.61 -4.59,0.91 -6.97,0.91 -2.39,0 -4.71,-0.3 -6.98,-0.91 -2.26,-0.61 -4.28,-1.52 -6.06,-2.73 -1.77,-1.22 -3.2,-2.74 -4.27,-4.56 -1.08,-1.82 -1.61,-3.95 -1.61,-6.37l0 -21.94zm2.73 21.94c0,1.96 0.47,3.69 1.4,5.18 0.94,1.5 2.15,2.73 3.64,3.72 1.5,0.98 3.22,1.71 5.16,2.2 1.93,0.49 3.93,0.74 5.99,0.74 2.01,0 3.99,-0.25 5.95,-0.74 1.97,-0.49 3.71,-1.22 5.22,-2.2 1.52,-0.99 2.75,-2.22 3.68,-3.72 0.94,-1.49 1.4,-3.22 1.4,-5.18l0 -21.94c0,-2.1 -0.46,-3.9 -1.4,-5.39 -0.93,-1.5 -2.17,-2.73 -3.71,-3.68 -1.54,-0.96 -3.29,-1.66 -5.26,-2.11 -1.96,-0.44 -3.94,-0.66 -5.95,-0.66 -2.01,0 -3.99,0.23 -5.92,0.7 -1.94,0.47 -3.66,1.19 -5.16,2.17 -1.49,0.98 -2.7,2.21 -3.64,3.68 -0.93,1.47 -1.4,3.24 -1.4,5.29l0 21.94zm46.11 13.87l0 -49.61 2.73 0 0 46.88 24.81 0 0 2.73 -27.54 0zm31.6 -35.81c0,-2.43 0.54,-4.54 1.62,-6.34 1.07,-1.8 2.5,-3.31 4.27,-4.52 1.78,-1.22 3.8,-2.13 6.06,-2.73 2.27,-0.61 4.59,-0.91 6.97,-0.91 2.39,0 4.71,0.3 6.98,0.91 2.26,0.6 4.28,1.51 6.06,2.73 1.77,1.21 3.21,2.72 4.31,4.52 1.1,1.8 1.65,3.91 1.65,6.34l0 21.94c0,2.42 -0.55,4.55 -1.65,6.37 -1.1,1.82 -2.54,3.34 -4.31,4.56 -1.78,1.21 -3.8,2.12 -6.06,2.73 -2.27,0.61 -4.59,0.91 -6.98,0.91 -2.38,0 -4.7,-0.3 -6.97,-0.91 -2.26,-0.61 -4.28,-1.52 -6.06,-2.73 -1.77,-1.22 -3.2,-2.74 -4.27,-4.56 -1.08,-1.82 -1.62,-3.95 -1.62,-6.37l0 -21.94zm2.74 21.94c0,1.96 0.46,3.69 1.4,5.18 0.93,1.5 2.15,2.73 3.64,3.72 1.5,0.98 3.22,1.71 5.15,2.2 1.94,0.49 3.94,0.74 5.99,0.74 2.01,0 4,-0.25 5.96,-0.74 1.96,-0.49 3.7,-1.22 5.22,-2.2 1.52,-0.99 2.75,-2.22 3.68,-3.72 0.94,-1.49 1.4,-3.22 1.4,-5.18l0 -21.94c0,-2.1 -0.46,-3.9 -1.4,-5.39 -0.93,-1.5 -2.17,-2.73 -3.71,-3.68 -1.54,-0.96 -3.3,-1.66 -5.26,-2.11 -1.96,-0.44 -3.95,-0.66 -5.95,-0.66 -2.01,0 -3.99,0.23 -5.93,0.7 -1.93,0.47 -3.65,1.19 -5.15,2.17 -1.49,0.98 -2.71,2.21 -3.64,3.68 -0.94,1.47 -1.4,3.24 -1.4,5.29l0 21.94zm44.92 -22.08c0,-2.38 0.51,-4.46 1.54,-6.24 1.03,-1.77 2.38,-3.27 4.06,-4.48 1.69,-1.22 3.59,-2.13 5.71,-2.73 2.13,-0.61 4.31,-0.91 6.56,-0.91 1.63,0 3.26,0.16 4.87,0.49 1.61,0.32 3.12,0.81 4.52,1.47 1.4,0.65 2.67,1.47 3.82,2.45 1.14,0.98 2.06,2.15 2.76,3.5l-2.45 1.27c-0.61,-1.13 -1.4,-2.1 -2.38,-2.91 -0.98,-0.82 -2.07,-1.49 -3.26,-2 -1.19,-0.51 -2.48,-0.9 -3.85,-1.16 -1.38,-0.25 -2.77,-0.38 -4.17,-0.38 -1.87,0 -3.71,0.24 -5.5,0.73 -1.8,0.49 -3.4,1.22 -4.8,2.18 -1.41,0.95 -2.54,2.16 -3.4,3.61 -0.87,1.44 -1.3,3.15 -1.3,5.11l0 22.08c0,1.96 0.43,3.67 1.3,5.15 0.86,1.47 2,2.69 3.43,3.67 1.43,0.99 3.04,1.72 4.84,2.21 1.79,0.49 3.65,0.74 5.57,0.74 1.87,0 3.71,-0.25 5.53,-0.74 1.82,-0.49 3.46,-1.22 4.91,-2.21 1.45,-0.98 2.6,-2.2 3.47,-3.67 0.86,-1.48 1.29,-3.19 1.29,-5.15l0 -7.57 -15.2 0 0 -2.74 17.94 0 0 10.31c0,2.42 -0.52,4.55 -1.55,6.37 -1.02,1.82 -2.38,3.34 -4.06,4.56 -1.68,1.21 -3.6,2.12 -5.75,2.73 -2.15,0.61 -4.34,0.91 -6.58,0.91 -2.25,0 -4.44,-0.3 -6.59,-0.91 -2.15,-0.61 -4.05,-1.52 -5.71,-2.73 -1.66,-1.22 -3,-2.74 -4.03,-4.56 -1.03,-1.82 -1.54,-3.95 -1.54,-6.37l0 -22.08zm48.35 35.95l-2.73 0 0 -49.61 2.73 0 0 49.61zm47.44 0l-2.94 0 -6.24 -17.24 -22.21 0 -6.03 17.24 -2.94 0 18.15 -49.61 3.99 0 18.22 49.61zm-30.41 -19.97l20.32 0 -10.16 -27.61 -10.16 27.61zm54.94 -6.24l25.16 0 0 2.8 -25.16 0 0 20.68 27.26 0 0 2.73 -30 0 0 -49.61 30 0 0 2.73 -27.26 0 0 20.67zm56.13 26.21l-2.73 0 0 -49.61 2.73 0 0 23.47 30.34 0 0 -23.47 2.73 0 0 49.61 -2.73 0 0 -23.41 -30.34 0 0 23.41zm80.52 0l-2.95 0 -6.23 -17.24 -22.22 0 -6.02 17.24 -2.95 0 18.15 -49.61 4 0 18.22 49.61zm-30.42 -19.97l20.33 0 -10.17 -27.61 -10.16 27.61zm40.23 -1.75l0 21.72 -2.74 0 0 -49.61 18.01 0c2.25,0 4.33,0.26 6.24,0.8 1.92,0.54 3.57,1.37 4.98,2.49 1.4,1.12 2.52,2.57 3.36,4.34 0.84,1.78 1.28,3.88 1.33,6.31 0,2.66 -0.38,4.88 -1.15,6.66 -0.78,1.77 -1.86,3.21 -3.26,4.31 -1.4,1.1 -3.07,1.87 -5.01,2.31 -1.94,0.44 -4.08,0.67 -6.42,0.67l-1.61 0 16.68 21.72 -3.22 0 -16.68 -21.72 -10.51 0zm15.34 -2.39c4.35,0 7.62,-0.86 9.82,-2.59 2.19,-1.73 3.29,-4.69 3.29,-8.9 0,-2.1 -0.33,-3.88 -0.98,-5.32 -0.66,-1.45 -1.56,-2.62 -2.7,-3.51 -1.15,-0.89 -2.53,-1.54 -4.17,-1.96 -1.4,-0.33 -2.94,-0.49 -4.62,-0.49 -0.24,0 -0.45,0 -0.64,0l-15.34 0 0 22.77 15.34 0zm27.61 24.11l-2.73 0 0 -49.61 4.77 0 17.17 38.96 17.23 -38.96 4.63 0 0 49.61 -2.73 0 0 -47.51 -17.66 40.01 -2.95 0 -17.73 -40.08 0 47.58zm52 -35.81c0,-2.43 0.54,-4.54 1.61,-6.34 1.08,-1.8 2.5,-3.31 4.28,-4.52 1.77,-1.22 3.79,-2.13 6.06,-2.73 2.26,-0.61 4.59,-0.91 6.97,-0.91 2.38,0 4.71,0.3 6.97,0.91 2.27,0.6 4.29,1.51 6.07,2.73 1.77,1.21 3.21,2.72 4.31,4.52 1.09,1.8 1.64,3.91 1.64,6.34l0 21.94c0,2.42 -0.55,4.55 -1.64,6.37 -1.1,1.82 -2.54,3.34 -4.31,4.56 -1.78,1.21 -3.8,2.12 -6.07,2.73 -2.26,0.61 -4.59,0.91 -6.97,0.91 -2.38,0 -4.71,-0.3 -6.97,-0.91 -2.27,-0.61 -4.29,-1.52 -6.06,-2.73 -1.78,-1.22 -3.2,-2.74 -4.28,-4.56 -1.07,-1.82 -1.61,-3.95 -1.61,-6.37l0 -21.94zm2.73 21.94c0,1.96 0.47,3.69 1.41,5.18 0.93,1.5 2.14,2.73 3.64,3.72 1.49,0.98 3.21,1.71 5.15,2.2 1.94,0.49 3.94,0.74 5.99,0.74 2.01,0 4,-0.25 5.96,-0.74 1.96,-0.49 3.7,-1.22 5.22,-2.2 1.52,-0.99 2.74,-2.22 3.68,-3.72 0.93,-1.49 1.4,-3.22 1.4,-5.18l0 -21.94c0,-2.1 -0.47,-3.9 -1.4,-5.39 -0.94,-1.5 -2.17,-2.73 -3.72,-3.68 -1.54,-0.96 -3.29,-1.66 -5.25,-2.11 -1.96,-0.44 -3.95,-0.66 -5.96,-0.66 -2.01,0 -3.98,0.23 -5.92,0.7 -1.94,0.47 -3.66,1.19 -5.15,2.17 -1.5,0.98 -2.71,2.21 -3.64,3.68 -0.94,1.47 -1.41,3.24 -1.41,5.29l0 21.94zm78.28 -35.74l2.73 0 0 49.61 -3.99 0 -28.17 -45.41 0 45.41 -2.74 0 0 -49.61 3.44 0 28.73 46.18 0 -46.18zm17.66 49.61l-2.73 0 0 -49.61 2.73 0 0 49.61zm9.39 -49.61l32.37 0 1.48 1.54 -31.54 45.55 30.56 0 0 2.52 -33.15 0 -1.19 -1.61 31.46 -45.48 -29.99 0 0 -2.52zm77.22 49.61l-2.94 0 -6.24 -17.24 -22.21 0 -6.03 17.24 -2.94 0 18.15 -49.61 3.99 0 18.22 49.61zm-30.41 -19.97l20.32 0 -10.16 -27.61 -10.16 27.61zm53.4 17.94c1.4,0 2.78,-0.14 4.13,-0.42 1.36,-0.28 2.66,-0.68 3.89,-1.19 1.24,-0.52 2.36,-1.17 3.37,-1.97 1,-0.79 1.83,-1.72 2.48,-2.8l2.39 1.19c-0.61,1.17 -1.39,2.2 -2.35,3.09 -0.96,0.88 -2.03,1.65 -3.22,2.31 -1.2,0.65 -2.47,1.18 -3.82,1.57 -1.36,0.4 -2.74,0.67 -4.14,0.81l-2.17 4c1.78,0 3.15,0.49 4.13,1.47 0.8,0.74 1.2,1.7 1.2,2.87 0,0.33 -0.03,0.68 -0.07,1.05 -0.33,1.78 -1.13,3 -2.39,3.68 -1.26,0.68 -2.64,1.02 -4.13,1.02 -1.31,0 -2.43,-0.19 -3.36,-0.56 -0.94,-0.38 -1.8,-0.82 -2.6,-1.34l0.42 -1.96c0.89,0.52 1.75,0.94 2.6,1.26 0.84,0.33 1.72,0.49 2.66,0.49 0.93,0 1.81,-0.17 2.63,-0.52 0.81,-0.35 1.34,-1.09 1.57,-2.21 0.19,-0.84 0.12,-1.51 -0.21,-2 -0.32,-0.49 -0.77,-0.85 -1.33,-1.08 -0.56,-0.24 -1.18,-0.34 -1.86,-0.32 -0.67,0.03 -1.27,0.11 -1.78,0.25l-0.42 -0.56 2.87 -5.4 -0.49 0c-2.2,0 -4.37,-0.3 -6.52,-0.91 -2.15,-0.61 -4.06,-1.51 -5.74,-2.7 -1.69,-1.19 -3.04,-2.68 -4.07,-4.48 -1.03,-1.8 -1.54,-3.89 -1.54,-6.27l0 -22.29c0,-2.38 0.53,-4.46 1.58,-6.24 1.05,-1.77 2.41,-3.27 4.1,-4.48 1.68,-1.22 3.61,-2.13 5.78,-2.73 2.17,-0.61 4.38,-0.91 6.62,-0.91 1.64,0 3.26,0.15 4.87,0.45 1.61,0.3 3.13,0.78 4.55,1.44 1.43,0.65 2.71,1.47 3.86,2.45 1.14,0.98 2.07,2.15 2.77,3.5l-2.46 1.27c-0.65,-1.03 -1.47,-1.96 -2.45,-2.77 -0.98,-0.82 -2.08,-1.49 -3.29,-2 -1.22,-0.51 -2.51,-0.91 -3.89,-1.19 -1.38,-0.28 -2.77,-0.42 -4.17,-0.42 -1.87,0 -3.71,0.24 -5.54,0.73 -1.82,0.49 -3.44,1.22 -4.87,2.18 -1.42,0.95 -2.57,2.16 -3.43,3.61 -0.86,1.44 -1.3,3.15 -1.3,5.11l0 22.29c0,1.96 0.44,3.66 1.3,5.11 0.86,1.45 2.01,2.65 3.43,3.61 1.43,0.96 3.05,1.68 4.87,2.17 1.83,0.49 3.67,0.74 5.54,0.74zm35.53 -58.8c0.89,0 1.66,0.21 2.31,0.63 0.8,0.47 1.53,1 2.21,1.58 0.68,0.59 1.33,1.12 1.96,1.61 0.63,0.49 1.3,0.72 2,0.67 1.77,-0.14 2.85,-1.38 3.22,-3.71l1.96 0.48c-0.09,1.55 -0.57,2.83 -1.43,3.86 -0.87,1.03 -2.05,1.59 -3.54,1.68 -0.1,0 -0.19,0 -0.28,0 -0.8,0 -1.54,-0.21 -2.24,-0.63 -0.75,-0.47 -1.45,-0.99 -2.11,-1.58 -0.65,-0.58 -1.33,-1.13 -2.03,-1.64 -0.61,-0.42 -1.26,-0.63 -1.96,-0.63 -0.09,0 -0.16,0 -0.21,0 -0.75,0.04 -1.43,0.38 -2.03,1.01 -0.61,0.63 -1.01,1.56 -1.2,2.77l-1.89 -0.56c0.1,-1.73 0.65,-3.06 1.65,-3.99 1,-0.94 2.11,-1.45 3.33,-1.55 0.09,0 0.19,0 0.28,0zm24.32 60.83l-2.95 0 -6.23 -17.24 -22.22 0 -6.03 17.24 -2.94 0 18.15 -49.61 3.99 0 18.23 49.61zm-30.42 -19.97l20.32 0 -10.16 -27.61 -10.16 27.61zm35.32 -15.84c0,-2.43 0.54,-4.54 1.61,-6.34 1.08,-1.8 2.5,-3.31 4.28,-4.52 1.77,-1.22 3.79,-2.13 6.06,-2.73 2.26,-0.61 4.59,-0.91 6.97,-0.91 2.38,0 4.71,0.3 6.97,0.91 2.27,0.6 4.29,1.51 6.07,2.73 1.77,1.21 3.21,2.72 4.31,4.52 1.09,1.8 1.64,3.91 1.64,6.34l0 21.94c0,2.42 -0.55,4.55 -1.64,6.37 -1.1,1.82 -2.54,3.34 -4.31,4.56 -1.78,1.21 -3.8,2.12 -6.07,2.73 -2.26,0.61 -4.59,0.91 -6.97,0.91 -2.38,0 -4.71,-0.3 -6.97,-0.91 -2.27,-0.61 -4.29,-1.52 -6.06,-2.73 -1.78,-1.22 -3.2,-2.74 -4.28,-4.56 -1.07,-1.82 -1.61,-3.95 -1.61,-6.37l0 -21.94zm2.73 21.94c0,1.96 0.47,3.69 1.41,5.18 0.93,1.5 2.14,2.73 3.64,3.72 1.49,0.98 3.21,1.71 5.15,2.2 1.94,0.49 3.94,0.74 5.99,0.74 2.01,0 4,-0.25 5.96,-0.74 1.96,-0.49 3.7,-1.22 5.22,-2.2 1.52,-0.99 2.74,-2.22 3.68,-3.72 0.93,-1.49 1.4,-3.22 1.4,-5.18l0 -21.94c0,-2.1 -0.47,-3.9 -1.4,-5.39 -0.94,-1.5 -2.17,-2.73 -3.72,-3.68 -1.54,-0.96 -3.29,-1.66 -5.25,-2.11 -1.96,-0.44 -3.95,-0.66 -5.96,-0.66 -2.01,0 -3.98,0.23 -5.92,0.7 -1.94,0.47 -3.66,1.19 -5.15,2.17 -1.5,0.98 -2.71,2.21 -3.64,3.68 -0.94,1.47 -1.41,3.24 -1.41,5.29l0 21.94zm65.39 -33.01l0 21.65 24.17 0 0 2.74 -24.17 0 0 22.42 -2.74 0 0 -49.54 29.57 0 0 2.73 -26.83 0zm66.01 46.88l-2.95 0 -6.23 -17.24 -22.22 0 -6.02 17.24 -2.95 0 18.15 -49.61 4 0 18.22 49.61zm-30.42 -19.97l20.33 0 -10.16 -27.61 -10.17 27.61zm35.53 -15.98c0,-2.38 0.53,-4.46 1.58,-6.24 1.05,-1.77 2.42,-3.27 4.1,-4.48 1.68,-1.22 3.61,-2.13 5.78,-2.73 2.17,-0.61 4.38,-0.91 6.62,-0.91 1.64,0 3.26,0.15 4.87,0.45 1.62,0.3 3.13,0.78 4.56,1.44 1.42,0.65 2.71,1.47 3.85,2.45 1.15,0.98 2.07,2.15 2.77,3.5l-2.45 1.27c-0.66,-1.03 -1.47,-1.96 -2.45,-2.77 -0.99,-0.82 -2.08,-1.49 -3.3,-2 -1.21,-0.51 -2.51,-0.91 -3.89,-1.19 -1.38,-0.28 -2.77,-0.42 -4.17,-0.42 -1.87,0 -3.71,0.24 -5.53,0.73 -1.83,0.49 -3.45,1.22 -4.87,2.18 -1.43,0.95 -2.57,2.16 -3.44,3.61 -0.86,1.44 -1.29,3.15 -1.29,5.11l0 22.29c0,1.96 0.43,3.66 1.29,5.11 0.87,1.45 2.01,2.65 3.44,3.61 1.42,0.96 3.04,1.68 4.87,2.17 1.82,0.49 3.66,0.74 5.53,0.74 1.4,0 2.78,-0.14 4.14,-0.42 1.35,-0.28 2.65,-0.68 3.89,-1.19 1.24,-0.52 2.36,-1.17 3.36,-1.97 1,-0.79 1.83,-1.72 2.49,-2.8l2.38 1.19c-0.7,1.36 -1.63,2.53 -2.8,3.51 -1.17,0.98 -2.48,1.79 -3.93,2.45 -1.44,0.65 -2.97,1.14 -4.59,1.47 -1.61,0.33 -3.25,0.49 -4.94,0.49 -2.19,0 -4.36,-0.3 -6.51,-0.91 -2.15,-0.61 -4.07,-1.51 -5.75,-2.7 -1.68,-1.19 -3.04,-2.68 -4.06,-4.48 -1.03,-1.8 -1.55,-3.89 -1.55,-6.27l0 -22.29zm45.2 35.95l-2.73 0 0 -49.61 2.73 0 0 49.61zm47.44 0l-2.94 0 -6.24 -17.24 -22.21 0 -6.03 17.24 -2.94 0 18.15 -49.61 3.99 0 18.22 49.61zm-30.41 -19.97l20.32 0 -10.16 -27.61 -10.16 27.61zm37.49 19.97l0 -49.61 2.74 0 0 46.88 24.8 0 0 2.73 -27.54 0z"/>
 </g>
</svg>
