<?xml version="1.0" encoding="UTF-8"?>
<!DOCTYPE svg PUBLIC "-//W3C//DTD SVG 1.1//EN" "http://www.w3.org/Graphics/SVG/1.1/DTD/svg11.dtd">
<!-- Creator: CorelDRAW 2020 (64 Bit) -->
<svg xmlns="http://www.w3.org/2000/svg" xml:space="preserve" width="2112px" height="569px" version="1.1" shape-rendering="geometricPrecision" text-rendering="geometricPrecision" image-rendering="optimizeQuality" fill-rule="evenodd" clip-rule="evenodd"
viewBox="0 0 1779.9 480.03"
 xmlns:xlink="http://www.w3.org/1999/xlink"
 xmlns:xodm="http://www.corel.com/coreldraw/odm/2003">
 <defs>
   <mask id="id0">
     <linearGradient id="id1" gradientUnits="userSpaceOnUse" x1="93.4" y1="310.49" x2="158.17" y2="310.37">
      <stop offset="0" stop-opacity="0" stop-color="white"/>
      <stop offset="0.0901961" stop-opacity="1" stop-color="white"/>
      <stop offset="0.239216" stop-opacity="1" stop-color="white"/>
      <stop offset="0.309804" stop-opacity="0" stop-color="white"/>
      <stop offset="0.709804" stop-opacity="0" stop-color="white"/>
      <stop offset="0.8" stop-opacity="1" stop-color="white"/>
      <stop offset="0.94902" stop-opacity="1" stop-color="white"/>
      <stop offset="1" stop-opacity="0" stop-color="white"/>
     </linearGradient>
    <rect fill="url(#id1)" x="90.29" y="302.46" width="71.04" height="16.05"/>
   </mask>
 </defs>
 <g id="Camada_x0020_1">
  <metadata id="CorelCorpID_0Corel-Layer"/>
  <path fill="#000066" fill-rule="nonzero" d="M407.62 275.57c9.08,-22.82 18.23,-45.6 27.19,-68.46 4.93,-12.54 9.55,-25.19 14.26,-37.84 1.67,-4.44 6.7,-5.94 10.42,-8.45 27.67,-18.6 49.65,-48.71 68.86,-75.5 8.65,-12.03 17.1,-24.79 19.84,-39.34 2.73,-14.58 -1.57,-31.42 -14,-39.48 -5.4,-3.53 -11.59,-3.97 -17.25,-0.65 -13.7,8.13 -23.54,26.35 -31.53,39.51 -30.4,49.91 -51.25,104.34 -73.42,158.14 -9.88,24.1 -19.76,48.2 -30.98,71.71 -0.95,1.97 -1.94,3.94 -2.99,6.05 -5.22,0.77 -10.32,1.39 -15.42,2.26 -10.94,1.82 -21.77,4.12 -32.3,7.66 -8.57,2.88 -16.19,7.25 -22.53,13.7 -8.68,8.86 -9.04,18.19 -1.17,27.67 0.7,0.84 1.46,1.68 2.26,2.44 13.93,13.49 33.4,15.72 50.46,6.68 10.31,-5.47 18.88,-13.02 25.62,-22.46 3.83,-5.4 7.11,-11.23 10.36,-17.02 3.83,-6.86 1.82,-6.24 9.95,-6.2 15.16,0.03 30.33,0.22 45.49,0.73 16.99,0.62 33.98,1.64 50.97,2.59 6.27,0.36 12.54,0.94 18.81,1.49 9.59,0.84 19.17,1.71 28.72,2.7 11.6,1.2 23.15,2.55 34.71,3.86 7.54,0.88 15.05,1.79 22.6,2.66 1.64,0.18 3.32,0.26 4.96,0.15 1.64,-0.07 2.73,-1.31 2.84,-2.88 0.15,-2.12 -0.47,-4.01 -1.49,-5.83 -2.77,-4.96 -6.57,-8.94 -11.63,-11.52 -1.79,-0.88 -3.79,-1.61 -5.76,-1.79 -12.14,-1.28 -24.28,-2.44 -36.46,-3.43 -11.95,-1.02 -23.95,-1.89 -35.94,-2.66 -11.81,-0.73 -23.66,-1.67 -35.47,-1.78 -24.97,-0.3 -49.94,-0.08 -74.91,-0.08 -2.01,0 -4.01,-0.03 -6.53,-0.03 0.58,-1.9 0.95,-3.28 1.46,-4.6l0 0zm52.31 -134.4c9.7,-23.99 20.52,-47.43 32.41,-70.4 7.11,-13.74 15.02,-27.56 25.01,-39.44 2.95,-3.54 10.42,-13.71 15.78,-12.94 9.7,1.49 0.15,26.21 -2.08,30.95 -2.07,4.48 -4.48,8.93 -7.18,13.09 -16.84,26.32 -35.18,51.54 -56.32,74.65 -2.59,2.85 -5.18,5.73 -8.86,7.62 0.4,-1.16 0.77,-2.37 1.24,-3.53l0 0zm-92.78 159.81c-7.91,11.81 -17.46,21.84 -30.32,28.4 -3.29,1.68 -6.75,2.88 -10.43,3.5 -6.09,1.02 -8.57,-1.39 -7.62,-7.8 0.33,-2.26 1.46,-4.63 2.88,-6.45 2,-2.59 4.41,-4.96 7,-7 5.39,-4.3 11.63,-7.15 18.26,-8.9 5.51,-1.49 11.16,-2.48 16.74,-3.57 1.2,-0.22 2.44,-0.04 3.86,-0.04 -0.15,0.84 -0.11,1.46 -0.37,1.86l0 0z"/>
  <path id="1" fill="#000066" fill-rule="nonzero" d="M525.66 193.22c18.81,-4.37 33.54,-14.91 45.35,-29.82 1.49,-1.86 2.73,-3.97 3.82,-6.08 2.01,-3.98 1.68,-7.88 -0.76,-11.56 -0.91,-1.39 -2.01,-2.7 -3.21,-3.79 -7.18,-6.42 -15.46,-8.46 -24.71,-5.8 -8.13,2.37 -15.21,6.71 -21.33,12.51 -13.49,12.86 -21.03,28.54 -20.89,47.24 0.11,16.44 7.69,28.58 23.22,35.14 13.82,5.8 27.64,6.27 41.16,-0.95 4.74,-2.51 9.48,-5.06 13.96,-7.94 16.95,-10.97 31.94,-24.17 43.93,-40.28 1.97,-2.67 3.68,-5.55 5.32,-8.42 1.57,-2.74 0.29,-5.11 -1.97,-7.3 -1.05,-0.98 -2.26,-1.89 -3.61,-2.47 -0.73,-0.33 -1.53,-0.55 -2.33,-0.62 -0.98,-0.04 -1.17,0.14 -1.71,0.91 -3.54,4.81 -6.67,9.88 -10.39,14.58 -3.72,4.7 -7.73,9.19 -11.96,13.41 -10.24,10.25 -21.73,18.96 -34.3,26.14 -4.92,2.81 -10.39,4.74 -15.68,6.89 -2.95,1.17 -6.09,1.28 -9.26,1.35 -6.49,0.11 -10.86,-2.84 -13.81,-8.42 -4.05,-7.47 -4.6,-15.38 -3.5,-23.7 0.94,-0.4 1.78,-0.83 2.66,-1.02l0 0zm-0.62 -9.04c4.85,-15.6 13.89,-27.92 28.21,-36.09 2.37,-1.35 5.03,-2.18 7.66,-3.02 1.97,-0.59 4.01,-0.44 5.83,0.73 1.13,2.47 0.51,4.81 -0.69,6.92 -1.64,2.85 -3.32,5.73 -5.36,8.31 -6.38,8.02 -14.36,14.29 -22.97,19.73 -3.86,2.44 -7.83,4.81 -13.08,6.81 0.18,-1.67 0.18,-2.58 0.4,-3.39l0 0z"/>
  <path id="2" fill="#000066" fill-rule="nonzero" d="M706.29 168.36c-1.57,-2.59 -3.57,-4.63 -7.36,-4.26 -1.1,2.29 -2.19,4.59 -3.29,6.92 -7.51,16.08 -17.53,30.37 -30.8,42.29 -4.56,4.12 -9.51,7.62 -15.13,10.17 -3.02,1.39 -6.23,2.33 -9.59,2.66 -2.69,0.26 -4.62,-0.84 -5.75,-3.32 -1.46,-3.06 -2.12,-6.3 -2.34,-9.62 -0.51,-7.25 0.18,-14.4 1.75,-21.47 2.7,-12.36 7.26,-24.02 13.02,-35.25 1.27,-2.44 2.51,-4.96 3.6,-7.48 0.99,-2.29 1.1,-4.7 -0.14,-6.96 -1.53,-2.84 -3.83,-4.96 -6.75,-6.34 -2.77,-1.31 -5.03,-0.99 -7.03,1.27 -1.71,1.94 -3.25,4.05 -4.56,6.27 -6.12,10.17 -10.86,21 -13.92,32.49 -2.56,9.51 -3.98,19.17 -2.7,29.09 0.58,4.81 2.08,9.33 4.45,13.56 5.79,10.35 19.97,17.9 33.97,12.79 4.74,-1.75 9.12,-4.04 13.2,-6.96 4.81,-3.46 9.19,-7.44 13.23,-11.78 10.65,-11.51 18.78,-24.67 25.34,-38.86 0.4,-0.83 0.87,-1.67 1.02,-2.55 0.14,-0.87 0.22,-1.97 -0.18,-2.66l-0.04 0zm-52.02 -38.17c2.66,0.55 3.75,0.11 5.03,-2.22 2.84,-5.36 5.65,-10.79 8.42,-16.22 0.33,-0.62 0.47,-1.35 0.69,-2.08 -0.43,-0.88 -0.69,-1.9 -1.31,-2.48 -1.64,-1.46 -3.32,-2.99 -5.21,-3.97 -3.76,-2.01 -5.65,-1.61 -7.99,1.97 -2.91,4.48 -5.43,9.22 -8.09,13.85 -0.36,0.62 -0.47,1.38 -0.76,2.08 -0.62,1.53 -0.22,2.91 0.8,4.12 2.19,2.62 5.07,4.26 8.42,4.95l0 0z"/>
  <path id="3" fill="#000066" fill-rule="nonzero" d="M779.85 164.64c-3.75,2.41 -5.39,6.13 -7.54,9.85 -2.59,4.44 -5.22,8.89 -7.91,13.27 -5.25,8.64 -10.76,17.17 -16.44,25.51 -7.26,10.65 -14.62,21.26 -22.82,31.21 -8.17,9.91 -17.07,19.94 -27.49,27.56 -2.12,1.56 -3.76,1.82 -4.96,1.16 -1.42,-0.73 -2.22,-2.77 -2.48,-5.39 -0.25,-2.41 -0.14,-4.85 0.07,-7.26 2.85,-32.84 13.46,-64.78 25.49,-95.1 13.01,-32.81 28.14,-64.67 44.47,-95.99 6.13,-11.77 12.58,-23.4 18.85,-35.14 0.98,-1.79 1.86,-3.61 2.77,-5.43 2.22,-2.37 0.36,-8.75 -2.01,-10.54 -4.77,-3.57 -8.82,4.63 -10.93,7.77 -9.34,13.85 -17.61,28.36 -25.96,42.83 -24.46,42.58 -43.96,88.11 -58.8,134.92 -4.7,14.8 -8.35,29.89 -9.88,45.38 -0.58,5.91 -0.62,11.78 0.48,17.68 1.53,8.39 3.35,15.79 13.01,17.36 17.9,2.95 30.69,-12.69 40.79,-25.01 20.23,-24.61 37.19,-51.62 53.08,-79.18 1.79,-3.03 3.57,-6.02 5.25,-9.11 2.66,-5 -2.37,-9.37 -7.04,-6.35l0 0z"/>
  <path id="4" fill="#000066" fill-rule="nonzero" d="M927.93 169.16c-0.8,-1.6 -1.9,-3.17 -3.13,-4.48 -1.83,-1.9 -3.21,-1.68 -5.18,0.25 -5.47,5.22 -10.83,10.61 -16.52,15.61 -8.71,7.73 -17.86,14.94 -28.06,20.67 -4.56,2.55 -9.3,4.55 -14.33,5.94 -3.21,0.84 -6.45,1.6 -9.84,1.2 -2.05,-0.25 -3.54,-1.24 -3.9,-3.32 -0.44,-2.55 -1.06,-5.1 -0.95,-7.65 0.14,-4.78 0.54,-9.59 1.27,-14.33 0.84,-5.1 2.34,-10.06 3.25,-15.16 0.98,-5.54 -0.15,-10.68 -4.52,-14.58 -3.68,-3.32 -5.14,-2.56 -7.4,0.25 -0.69,0.84 -1.46,1.64 -2.26,2.44 -6.27,6.53 -12.43,13.16 -18.85,19.54 -6.2,6.09 -12.98,11.56 -20.63,15.82 -2.7,1.5 -5.69,2.59 -8.61,3.69 -0.94,0.36 -2.07,0.18 -3.09,0.22 -0.52,-4.6 -0.48,-5.69 1.13,-9.41 3.09,-7.25 7.51,-13.56 13.37,-18.85 5.95,-5.32 12.76,-7.98 20.86,-7 1.2,0.15 2.44,-0.11 3.6,-0.14 0.63,-2.52 -0.8,-3.87 -2,-5.18 -6.6,-7.14 -15.64,-10.02 -25.77,-5.76 -11.6,4.89 -19.69,13.71 -24.79,25.01 -2.85,6.23 -3.28,12.87 -0.22,19.36 2.44,5.14 6.12,9.18 10.94,12.21 3.24,2.08 6.74,2.84 10.6,2.37 4.85,-0.59 9.37,-2.26 13.42,-4.92 4.3,-2.85 8.49,-5.91 12.47,-9.23 4.22,-3.53 8.13,-7.51 12.17,-11.3 0.91,-0.8 1.93,-1.53 3.47,-2.77 -0.19,2.04 -0.26,3.28 -0.48,4.49 -0.87,4.84 -0.4,9.58 0.77,14.29 2.55,10.17 13.19,19.13 24.71,18.37 4.71,-0.29 9.23,-1.24 13.42,-3.21 5.17,-2.44 10.31,-4.99 15.24,-7.87 14.43,-8.5 26.83,-19.61 38.86,-31.13 1.96,-1.9 2.22,-2.99 0.98,-5.44l0 0z"/>
  <path id="5" fill="#000066" fill-rule="nonzero" d="M1073.93 164.28c-11.81,3.1 -23.37,6.92 -34.41,12.25 -6.53,3.13 -12.76,6.7 -18.45,11.19 -1.31,1.02 -2.55,2.15 -3.79,3.28 -1.13,1.06 -1.64,2.41 -1.49,3.97 0.25,2.66 1.2,5.03 3.02,7 1.17,1.28 2.52,1.53 4.01,0.73 0.95,-0.51 1.82,-1.24 2.77,-1.78 5,-2.85 9.88,-5.87 15.02,-8.39 11.67,-5.69 24.1,-9.33 36.64,-12.5 0.69,-0.15 1.42,0 2.44,0 -0.51,2.59 -1.6,4.7 -2.44,6.85 -15.9,40.39 -31.79,80.78 -47.65,121.17 -1.57,3.98 -3.06,7.95 -4.45,11.96 -0.98,2.74 -0.51,4.19 1.97,5.58 3.61,2.08 7.55,2.95 11.74,2.26 2.52,-0.4 4.41,-1.64 5.4,-4.19 1.09,-2.92 2.4,-5.8 3.61,-8.68 18.55,-44.51 36.3,-89.31 53.88,-134.22 0.72,-1.86 1.53,-3.69 2.33,-5.58 1.86,-0.33 3.5,-0.69 5.14,-0.88 12.68,-1.45 25.37,-2.48 38.17,-2.62 15.93,-0.15 31.82,0.25 47.64,2.22 5.32,0.7 10.65,1.35 16,1.61 5.76,0.25 7.26,-1.61 6.57,-7.26 -0.15,-1.09 -0.48,-2.15 -0.77,-3.21 -0.8,-2.88 -2.55,-4.92 -5.47,-5.79 -2.29,-0.7 -4.59,-1.42 -6.92,-1.79 -13.56,-2.11 -27.24,-2.88 -40.94,-3.17 -8.86,-0.18 -17.76,0.04 -26.61,0.55 -4.49,0.25 -8.97,0.62 -13.45,0.98 -3.91,0.37 -8.17,1.35 -12.07,0.73 0.03,-1.71 1.31,-3.94 1.97,-5.58 0.69,-1.86 1.42,-3.72 2.11,-5.57 1.46,-3.76 2.88,-7.48 4.3,-11.2 2.85,-7.43 5.65,-14.87 8.5,-22.31 4.66,-12.35 9.29,-24.71 13.85,-37.14 2.26,-6.2 4.52,-12.4 6.74,-18.59 1.1,-3.1 2.23,-6.24 3.32,-9.34 0.33,-0.94 2.48,-8.89 3.14,-8.96 0.94,-0.11 1.85,-0.3 2.77,-0.33 13.45,-0.99 26.94,-2.15 40.42,-2.81 24.94,-1.2 49.95,-1.42 74.88,-0.04 10.54,0.59 21.04,1.68 31.5,2.81 6.63,0.69 13.19,1.86 19.76,2.77 2.88,0.4 4.3,-0.4 4.99,-3.1 1.2,-4.59 0.87,-9.15 -0.91,-13.6 -1.06,-2.66 -2.92,-4.01 -5.87,-4.19 -11.45,-0.76 -22.89,-1.71 -34.34,-2.48 -24.93,-1.67 -49.91,-1.05 -74.88,0.04 -6.67,0.29 -13.3,0.77 -19.94,1.28 -10.68,0.87 -21.36,1.93 -32.04,2.8 -18.45,1.42 -36.86,3.36 -55.05,6.86 -15.78,3.06 -31.49,6.34 -46.91,11.08 -16.44,5.07 -32.45,11.26 -47.43,19.94 -8.02,4.7 -15.31,10.35 -21.84,16.95 -3.28,3.32 -6.12,6.93 -8.49,10.94 -2.19,3.72 -3.46,7.73 -3.72,12.06 -1.46,23.15 20.67,9.37 31.17,4.89 11.12,-4.74 22.64,-8.02 34.74,-8.93 8.02,-0.62 15.86,0.32 23.51,2.88 8.79,2.91 14.29,8.93 16.81,17.71 1.82,6.27 2.26,12.69 1.79,19.21 -0.73,9.67 -3.58,18.78 -6.38,28.15 -1.97,0.51 -3.94,1.02 -5.91,1.53l0 0zm23.55 -43.89c-0.8,-2.81 -1.86,-5.54 -3.1,-8.17 -2.66,-5.58 -6.34,-10.64 -10.72,-15.02 -4.55,-4.52 -9.8,-8.27 -15.42,-11.41 -7.98,-4.48 -16.73,-6.67 -25.95,-7.14 -15.9,-0.88 -30.84,2.62 -44.91,9.88 -1.79,0.91 -3.58,1.82 -5.65,2.84 0.14,-1.86 1.34,-2.52 2.18,-3.28 7.62,-7.11 15.93,-13.2 25.19,-18.05 15.97,-8.38 32.85,-14.29 50.27,-18.7 21.51,-5.43 43.31,-9.47 65.44,-11.73 0.87,-0.11 1.78,-0.04 2.59,-0.04 0.18,0.58 0.43,0.98 0.32,1.24 -12.35,29.42 -24.75,58.84 -37.54,89.2 -1.32,-3.06 -1.75,-6.49 -2.7,-9.62l0 0z"/>
  <path id="6" fill="#000066" fill-rule="nonzero" d="M1319.16 168.36c-1.57,-2.59 -3.57,-4.63 -7.37,-4.26 -1.09,2.29 -2.18,4.59 -3.28,6.92 -7.51,16.08 -17.53,30.37 -30.8,42.29 -4.56,4.12 -9.52,7.62 -15.13,10.17 -3.02,1.39 -6.23,2.33 -9.59,2.66 -2.69,0.26 -4.63,-0.84 -5.76,-3.32 -1.45,-3.06 -2.11,-6.3 -2.33,-9.62 -0.51,-7.25 0.18,-14.4 1.75,-21.47 2.7,-12.36 7.25,-24.02 13.01,-35.25 1.28,-2.44 2.52,-4.96 3.61,-7.48 0.99,-2.29 1.1,-4.7 -0.14,-6.96 -1.53,-2.84 -3.83,-4.96 -6.75,-6.34 -2.77,-1.31 -5.03,-0.99 -7.03,1.27 -1.72,1.94 -3.25,4.05 -4.56,6.27 -6.12,10.17 -10.86,21 -13.92,32.49 -2.56,9.51 -3.98,19.17 -2.7,29.09 0.58,4.81 2.08,9.33 4.45,13.56 5.79,10.35 19.97,17.9 33.97,12.79 4.74,-1.75 9.11,-4.04 13.2,-6.96 4.81,-3.46 9.18,-7.44 13.23,-11.78 10.64,-11.51 18.77,-24.67 25.34,-38.86 0.4,-0.83 0.87,-1.67 1.02,-2.55 0.14,-0.87 0.22,-1.97 -0.19,-2.66l-0.03 0zm-52.02 -38.17c2.66,0.55 3.75,0.11 5.03,-2.22 2.84,-5.36 5.65,-10.79 8.42,-16.22 0.33,-0.62 0.47,-1.35 0.69,-2.08 -0.44,-0.88 -0.69,-1.9 -1.31,-2.48 -1.64,-1.46 -3.32,-2.99 -5.21,-3.97 -3.76,-2.01 -5.65,-1.61 -7.99,1.97 -2.91,4.48 -5.43,9.22 -8.09,13.85 -0.36,0.62 -0.47,1.38 -0.77,2.08 -0.61,1.53 -0.21,2.91 0.81,4.12 2.18,2.62 5.06,4.26 8.42,4.95l0 0z"/>
  <path id="7" fill="#000066" fill-rule="nonzero" d="M1444.45 9.35c-3.06,-4.01 -5.65,-3.57 -7.54,1.09 -3.1,7.51 -6.24,15.02 -9.15,22.6 -6.38,16.77 -13.64,33.14 -21.95,49.03 -4.45,8.5 -8.93,17.03 -13.45,25.49 -9.26,17.28 -18.41,34.55 -27.89,51.72 -7.33,13.31 -15.86,25.81 -25.92,37.26 -3.28,3.76 -6.78,7.33 -11.04,9.99 -0.7,0.4 -1.61,0.44 -2.56,0.66 -1.02,-5.58 -0.07,-10.69 0.59,-15.79 1.42,-11.23 5.5,-21.43 11.74,-30.8 2.15,-3.25 4.7,-6.2 7.91,-8.46 4.74,-3.32 9.84,-5.07 15.63,-2.7 0.22,0.11 0.62,-0.22 0.95,-0.33 0.11,-0.36 0.4,-0.73 0.33,-1.02 -1.82,-6.67 -8.42,-12.17 -15.2,-12.76 -9.62,-0.83 -17.46,2.85 -23.51,10.03 -12.4,14.65 -17.36,32.01 -16.92,50.89 0.26,11.59 6.89,19.14 17.28,23.58 5.07,2.16 10.17,1.9 14.91,-0.87 2.55,-1.49 5.03,-3.28 7.04,-5.36 3.68,-3.86 7.29,-7.87 10.46,-12.17 5.03,-6.86 9.66,-14 14.47,-21 0.44,-0.62 1.02,-1.17 1.57,-1.75 -0.37,3.32 -1.31,6.27 -2.23,9.26 -6.78,21.91 -11.73,44.22 -15.56,66.85 -1.9,11.27 -3.79,22.57 -5,33.94 -0.29,2.77 -0.54,5.54 -0.47,8.32 0.04,2.55 1.28,4.7 3.79,5.57 3.43,1.17 6.86,1.53 10.17,-0.76 0.44,-2.92 1.02,-5.8 1.35,-8.72 2.01,-19.13 5.58,-38.02 9.48,-56.79 8.2,-39.37 21.25,-77.25 36.05,-114.54 5.94,-14.91 12.21,-29.71 18.3,-44.58 1.17,-2.92 1.94,-6.02 3.36,-8.79 6.41,-12.72 10.86,-26.28 16.33,-39.37 3.1,-7.36 1.13,-13.82 -3.32,-19.72l0 0z"/>
  <path id="8" fill="#000066" fill-rule="nonzero" d="M1429.65 193.22c18.81,-4.37 33.54,-14.91 45.35,-29.82 1.49,-1.86 2.73,-3.97 3.83,-6.08 2,-3.98 1.68,-7.88 -0.77,-11.56 -0.91,-1.39 -2,-2.7 -3.21,-3.79 -7.18,-6.42 -15.45,-8.46 -24.71,-5.8 -8.13,2.37 -15.2,6.71 -21.33,12.51 -13.49,12.86 -21.03,28.54 -20.89,47.24 0.11,16.44 7.7,28.58 23.23,35.14 13.81,5.8 27.63,6.27 41.15,-0.95 4.74,-2.51 9.48,-5.06 13.96,-7.94 16.96,-10.97 31.94,-24.17 43.93,-40.28 1.97,-2.67 3.68,-5.55 5.32,-8.42 1.57,-2.74 0.3,-5.11 -1.96,-7.3 -1.06,-0.98 -2.26,-1.89 -3.61,-2.47 -0.73,-0.33 -1.53,-0.55 -2.34,-0.62 -0.98,-0.04 -1.16,0.14 -1.71,0.91 -3.54,4.81 -6.67,9.88 -10.39,14.58 -3.72,4.7 -7.73,9.19 -11.96,13.41 -10.24,10.25 -21.72,18.96 -34.3,26.14 -4.92,2.81 -10.39,4.74 -15.67,6.89 -2.96,1.17 -6.09,1.28 -9.26,1.35 -6.49,0.11 -10.87,-2.84 -13.82,-8.42 -4.05,-7.47 -4.59,-15.38 -3.5,-23.7 0.95,-0.4 1.79,-0.83 2.66,-1.02l0 0zm-0.62 -9.04c4.85,-15.6 13.89,-27.92 28.22,-36.09 2.37,-1.35 5.03,-2.18 7.65,-3.02 1.97,-0.59 4.01,-0.44 5.83,0.73 1.13,2.47 0.52,4.81 -0.69,6.92 -1.64,2.85 -3.32,5.73 -5.36,8.31 -6.38,8.02 -14.36,14.29 -22.96,19.73 -3.87,2.44 -7.84,4.81 -13.09,6.81 0.18,-1.67 0.18,-2.58 0.4,-3.39l0 0z"/>
  <path id="9" fill="#000066" fill-rule="nonzero" d="M1607.29 164.64c-3.75,2.41 -5.39,6.13 -7.54,9.85 -2.59,4.44 -5.22,8.89 -7.91,13.27 -5.25,8.64 -10.76,17.17 -16.45,25.51 -7.25,10.65 -14.61,21.26 -22.82,31.21 -8.16,9.91 -17.06,19.94 -27.48,27.56 -2.12,1.56 -3.76,1.82 -4.96,1.16 -1.42,-0.73 -2.22,-2.77 -2.48,-5.39 -0.25,-2.41 -0.14,-4.85 0.07,-7.26 2.85,-32.84 13.46,-64.78 25.49,-95.1 13.01,-32.81 28.14,-64.67 44.47,-95.99 6.12,-11.77 12.58,-23.4 18.85,-35.14 0.98,-1.79 1.86,-3.61 2.77,-5.43 2.22,-2.37 0.36,-8.75 -2.01,-10.54 -4.77,-3.57 -8.82,4.63 -10.93,7.77 -9.34,13.85 -17.61,28.36 -25.96,42.83 -24.46,42.58 -43.96,88.11 -58.8,134.92 -4.7,14.8 -8.35,29.89 -9.88,45.38 -0.58,5.91 -0.62,11.78 0.48,17.68 1.53,8.39 3.35,15.79 13.01,17.36 17.9,2.95 30.69,-12.69 40.79,-25.01 20.23,-24.61 37.18,-51.62 53.08,-79.18 1.78,-3.03 3.57,-6.02 5.25,-9.11 2.66,-5 -2.37,-9.37 -7.04,-6.35l0 0z"/>
  <path id="10" fill="#000066" fill-rule="nonzero" d="M1774.62 172.88c-4.56,-4.41 -12.54,-0.14 -17.25,1.82 -13.23,5.58 -26.93,10.14 -40.31,15.35 -3.1,1.21 -3.72,-0.84 -5.47,-3.28 -1.53,-2.15 -2.99,-4.34 -4.74,-6.31 -2.7,-3.13 -5.69,-6.19 -8.28,-9.26 -6.01,-7.1 -2.66,-18 2.63,-23.29 5.5,-5.54 15.75,-8.82 23.91,-7.54 1.86,0.29 4.09,0.72 4.12,-1.61 0.04,-1.6 -0.95,-2.99 -1.97,-4.12 -5.94,-6.31 -13.3,-8.53 -21.69,-6.85 -6.81,1.38 -12.83,4.7 -18.11,9.26 -2.99,2.55 -5.18,5.72 -7,9.18 -3.1,5.91 -3.03,11.74 0.07,17.54 0.62,1.16 1.35,2.3 2.08,3.39 -0.62,1.27 -1.21,2.55 -1.83,3.86 -7.51,16.08 -17.53,30.37 -30.8,42.29 -4.56,4.12 -9.51,7.62 -15.13,10.17 -3.06,1.39 -6.23,2.33 -9.59,2.66 -2.69,0.26 -4.62,-0.84 -5.75,-3.32 -1.46,-3.06 -2.12,-6.3 -2.34,-9.62 -0.51,-7.25 0.18,-14.4 1.75,-21.47 2.7,-12.36 7.26,-24.02 13.02,-35.25 1.27,-2.44 2.51,-4.92 3.6,-7.48 0.99,-2.29 1.1,-4.7 -0.14,-6.96 -1.53,-2.84 -3.83,-4.96 -6.75,-6.34 -2.77,-1.31 -5.03,-0.99 -7.03,1.27 -1.71,1.94 -3.25,4.05 -4.56,6.27 -6.12,10.17 -10.86,21 -13.92,32.49 -2.56,9.51 -3.98,19.17 -2.7,29.09 0.58,4.81 2.08,9.33 4.45,13.56 5.79,10.35 19.97,17.9 33.97,12.79 4.74,-1.71 9.12,-4.04 13.2,-6.96 4.81,-3.46 9.19,-7.44 13.23,-11.78 10.14,-10.93 17.94,-23.4 24.32,-36.78 0.65,0.69 1.31,1.39 2,2.04 2.63,2.66 5.1,5.18 6.78,8.57 0.84,1.64 1.5,3.35 1.93,5.14 0.11,0.58 1.21,5.18 0.7,5.43 -1.79,0.88 -3.43,1.72 -5.07,2.52 -8.79,4.34 -17.39,9.04 -25.63,14.4 -3.9,2.51 -7.47,5.43 -10.28,9.18 -3.17,4.27 -2.62,8.9 1.46,12.29 14.91,12.32 37.77,3.17 49.03,-9.41 4.85,-5.43 7.58,-11.77 7.4,-19.21 -0.04,-0.91 -0.04,-4.23 -0.04,-5.43 0.92,-0.55 1.35,-0.87 1.86,-1.09 7.48,-3.1 15.06,-6.09 22.68,-8.93 7.76,-2.41 15.46,-5.55 23.04,-8.61 3.17,-1.27 14.43,-4.52 9.15,-9.66l0 0zm-79.36 46.37c-4.09,5.11 -10.06,9.77 -16.19,12.03 -1.86,0.69 -8.09,2.88 -9.59,0.77 -0.32,-0.44 -0.43,-1.1 -0.25,-1.97 1.67,-7.66 9.88,-11.78 16.29,-14.98 2.12,-1.06 4.27,-2.01 6.46,-2.85 1.38,-0.54 3.24,-1.64 4.73,-1.78 4.12,-0.33 -0.32,7.32 -1.45,8.78l0 0zm-55.85 -89.06c2.66,0.55 3.75,0.11 5.03,-2.22 2.84,-5.36 5.65,-10.79 8.42,-16.22 0.33,-0.62 0.47,-1.35 0.69,-2.08 -0.43,-0.88 -0.69,-1.9 -1.31,-2.48 -1.64,-1.46 -3.32,-2.99 -5.21,-3.97 -3.76,-2.01 -5.65,-1.61 -7.99,1.97 -2.91,4.48 -5.43,9.22 -8.09,13.85 -0.36,0.62 -0.47,1.38 -0.76,2.08 -0.62,1.53 -0.22,2.91 0.8,4.12 2.22,2.62 5.07,4.26 8.42,4.95l0 0z"/>
  <path fill="#D7A205" fill-rule="nonzero" d="M25.2 0l51.72 0 0.96 0 13.28 0 4.9 0 0 14.05c-3.73,0 -7.93,3.27 -11.48,7.68 -3.03,3.77 -5.43,8.17 -6.7,12.17l0 244.94c0.33,4.95 3.35,11.59 7.67,16.94 3.55,4.41 7.75,7.68 11.47,7.68l101.73 0c3.73,0 7.93,-3.27 11.48,-7.68 4.57,-5.68 7.69,-12.79 7.69,-17.81l0 0 -0.02 1.12 11.44 0 0 24.37 0 14.05 -11.44 0 -0.01 0 -19.14 0 -101.73 0 -19.14 0 -58.72 0 -0.98 0 -13.39 0 -4.77 0 0 -14.05c3.73,0 7.92,-3.27 11.48,-7.68 3.02,-3.75 5.4,-8.13 6.68,-12.11l0 -249.73c-1.27,-4 -3.67,-8.41 -6.7,-12.17 -3.55,-4.41 -7.75,-7.68 -11.48,-7.68l0 -14.05 4.89 0 0 -0.04 13.29 0 7.02 0zm192.7 279.09l-0.01 24.37 0.01 0 0 -24.37zm-154.07 -265.04l-31.6 0 0 289.41 31.6 0 0 -289.41z"/>
  <polygon fill="#7A5804" mask="url(#id0)" points="91.29,303.46 160.33,303.46 160.33,317.51 91.29,317.51 "/>
  <path fill="white" fill-rule="nonzero" d="M103.07 459.71l68.22 0 0 -9.15c-1.46,-0.4 -2.91,-1.11 -4.33,-2.07 -2.3,-1.53 -4.54,-3.72 -6.56,-6.23 -1.61,-1.99 -3.05,-4.15 -4.25,-6.33 -1.23,-2.25 -2.23,-4.53 -2.91,-6.69l-0.13 -0.39c0,-78.09 -4.33,-169.05 0.01,-245.52 0.19,-2.79 1.1,-5.99 2.56,-9.2 1.42,-3.15 3.38,-6.35 5.68,-9.21 2.02,-2.51 4.27,-4.7 6.56,-6.23 2.29,-1.53 4.65,-2.44 6.97,-2.44l77.83 0c2.32,0 4.69,0.91 6.97,2.44 2.29,1.53 4.54,3.72 6.56,6.23 1.07,1.33 2.08,2.74 2.98,4.19l0.01 -12.86 5.26 0 0 24.37 6.18 0 0 -33.15 -200.16 0 0 9.15c1.45,0.4 2.91,1.11 4.33,2.07 2.29,1.53 4.54,3.72 6.56,6.23 1.6,1.98 3.03,4.13 4.23,6.3 1.21,2.2 2.2,4.47 2.9,6.66l0.13 0.42 0 250.51 -0.12 0.39c-0.68,2.17 -1.68,4.44 -2.91,6.69 -1.21,2.18 -2.64,4.34 -4.25,6.33 -2.02,2.51 -4.26,4.7 -6.56,6.23 -1.42,0.96 -2.88,1.67 -4.33,2.07l0 9.15 4.89 0 0 0.04 17.68 0zm51.71 5.27l-74.66 0 0 -0.04 -4.89 0 0 -19.32 2.63 0c1.23,0 2.61,-0.57 4.05,-1.53 1.83,-1.22 3.68,-3.04 5.38,-5.16 1.41,-1.75 2.67,-3.65 3.74,-5.57 0.98,-1.8 1.79,-3.62 2.38,-5.37l0 -248.93c-0.58,-1.7 -1.39,-3.5 -2.38,-5.31 -1.06,-1.91 -2.32,-3.8 -3.72,-5.54 -1.71,-2.12 -3.56,-3.94 -5.38,-5.16 -1.44,-0.96 -2.82,-1.53 -4.05,-1.53l0 0 0 -19.32 208.07 0 0 43.69 -14.08 0 0 -1.49 -2.6 0.04 0 -0.07c-0.01,-2.13 -0.7,-4.78 -1.9,-7.56 -1.27,-2.93 -3.07,-5.94 -5.22,-8.6 -1.71,-2.12 -3.56,-3.94 -5.38,-5.16 -1.44,-0.96 -2.82,-1.53 -4.05,-1.53l-77.83 0c-1.22,0 -2.61,0.57 -4.05,1.53 -1.82,1.22 -3.67,3.04 -5.38,5.16 -2.02,2.51 -3.74,5.32 -4.99,8.08 -1.18,2.6 -1.92,5.13 -2.09,7.25l0 244.49c0.58,1.75 1.39,3.57 2.38,5.37 1.06,1.92 2.33,3.82 3.73,5.57 1.71,2.12 3.56,3.94 5.39,5.16 1.43,0.96 2.82,1.53 4.04,1.53l2.64 0 0 19.32 -21.78 0zm-13.08 -14.05l-34.24 0 0 -294.68 36.87 0 0 294.68 -2.63 0zm-28.98 -5.27l26.34 0 0 -284.14 -26.34 0 0 284.14z"/>
  <path fill="#D7A205" fill-rule="nonzero" d="M103.07 462.34l51.71 0 0.97 0 13.28 0 4.89 0 0 -14.05c-3.72,0 -7.92,-3.27 -11.47,-7.67 -3.04,-3.77 -5.44,-8.17 -6.7,-12.18l0 -244.94c0.33,-4.95 3.35,-11.58 7.66,-16.94 3.55,-4.4 7.75,-7.67 11.48,-7.67l77.83 0c3.73,0 7.93,3.27 11.48,7.67 4.57,5.68 7.69,12.79 7.69,17.81l0 0 -0.02 -1.12 11.44 0 0 -24.36 0 -14.05 -11.44 0 -0.01 0 -19.14 0 -77.83 0 -19.14 0 -58.73 0 -0.98 0 -13.38 0 -4.78 0 0 14.05c3.73,0 7.93,3.27 11.48,7.67 3.02,3.75 5.41,8.13 6.68,12.12l0 249.73c-1.27,4 -3.66,8.4 -6.7,12.17 -3.55,4.4 -7.75,7.68 -11.48,7.68l0 14.04 4.9 0 0 0.04 13.28 0 7.03 0zm168.8 -279.09l0 -24.36 0 0 0 24.36zm-130.17 265.04l-31.61 0 0 -289.4 31.61 0 0 289.4z"/>
  <path fill="#D7A205" fill-rule="nonzero" d="M411.06 429.46c0,-2.44 0.54,-4.56 1.62,-6.36 1.08,-1.8 2.5,-3.31 4.28,-4.53 1.78,-1.22 3.81,-2.13 6.08,-2.74 2.27,-0.61 4.6,-0.91 6.99,-0.91 2.39,0 4.72,0.3 6.99,0.91 2.27,0.61 4.29,1.52 6.07,2.74 1.78,1.22 3.22,2.73 4.32,4.53 1.1,1.8 1.65,3.92 1.65,6.36l0 21.98c0,2.44 -0.55,4.57 -1.65,6.4 -1.1,1.82 -2.54,3.34 -4.32,4.56 -1.78,1.22 -3.8,2.13 -6.07,2.74 -2.27,0.61 -4.6,0.91 -6.99,0.91 -2.39,0 -4.72,-0.3 -6.99,-0.91 -2.27,-0.61 -4.3,-1.52 -6.08,-2.74 -1.78,-1.22 -3.2,-2.74 -4.28,-4.56 -1.08,-1.83 -1.62,-3.96 -1.62,-6.4l0 -21.98zm2.74 21.98c0,1.97 0.47,3.7 1.41,5.2 0.93,1.5 2.15,2.74 3.65,3.73 1.5,0.98 3.22,1.72 5.16,2.21 1.95,0.49 3.95,0.73 6.01,0.73 2.01,0 4,-0.24 5.97,-0.73 1.97,-0.49 3.71,-1.23 5.23,-2.21 1.52,-0.99 2.75,-2.23 3.69,-3.73 0.94,-1.5 1.4,-3.23 1.4,-5.2l0 -21.98c0,-2.11 -0.46,-3.91 -1.4,-5.41 -0.94,-1.5 -2.18,-2.73 -3.72,-3.69 -1.55,-0.96 -3.3,-1.66 -5.27,-2.11 -1.97,-0.44 -3.96,-0.66 -5.97,-0.66 -2.02,0 -3.99,0.23 -5.94,0.7 -1.94,0.47 -3.66,1.19 -5.16,2.18 -1.5,0.98 -2.72,2.21 -3.65,3.68 -0.94,1.48 -1.41,3.25 -1.41,5.31l0 21.98zm63.5 -35.82c2.25,0 4.37,0.26 6.36,0.77 1.99,0.52 3.75,1.34 5.27,2.46 1.52,1.13 2.71,2.56 3.58,4.32 0.87,1.76 1.3,3.85 1.3,6.29l0 22.12c0,2.44 -0.43,4.52 -1.3,6.26 -0.87,1.73 -2.06,3.16 -3.58,4.28 -1.52,1.12 -3.28,1.94 -5.27,2.46 -1.99,0.51 -4.11,0.77 -6.36,0.77l-17.28 0 0 -49.73 17.28 0zm0 46.99c1.88,0 3.66,-0.21 5.34,-0.63 1.69,-0.42 3.15,-1.07 4.39,-1.93 1.24,-0.87 2.23,-2 2.95,-3.41 0.73,-1.4 1.09,-3.09 1.09,-5.06l0 -22.12c0,-1.97 -0.36,-3.65 -1.09,-5.06 -0.72,-1.4 -1.71,-2.55 -2.95,-3.44 -1.24,-0.89 -2.7,-1.55 -4.39,-1.97 -1.68,-0.42 -3.46,-0.63 -5.34,-0.63l-14.54 0 0 44.25 14.54 0zm26.62 -33.15c0,-2.44 0.54,-4.56 1.62,-6.36 1.08,-1.8 2.51,-3.31 4.29,-4.53 1.77,-1.22 3.8,-2.13 6.07,-2.74 2.27,-0.61 4.6,-0.91 6.99,-0.91 2.39,0 4.72,0.3 6.99,0.91 2.27,0.61 4.3,1.52 6.08,2.74 1.78,1.22 3.22,2.73 4.32,4.53 1.1,1.8 1.65,3.92 1.65,6.36l0 21.98c0,2.44 -0.55,4.57 -1.65,6.4 -1.1,1.82 -2.54,3.34 -4.32,4.56 -1.78,1.22 -3.81,2.13 -6.08,2.74 -2.27,0.61 -4.6,0.91 -6.99,0.91 -2.39,0 -4.72,-0.3 -6.99,-0.91 -2.27,-0.61 -4.3,-1.52 -6.07,-2.74 -1.78,-1.22 -3.21,-2.74 -4.29,-4.56 -1.08,-1.83 -1.62,-3.96 -1.62,-6.4l0 -21.98zm2.74 21.98c0,1.97 0.47,3.7 1.41,5.2 0.94,1.5 2.15,2.74 3.65,3.73 1.5,0.98 3.22,1.72 5.17,2.21 1.94,0.49 3.94,0.73 6,0.73 2.01,0 4,-0.24 5.97,-0.73 1.97,-0.49 3.71,-1.23 5.23,-2.21 1.53,-0.99 2.76,-2.23 3.69,-3.73 0.94,-1.5 1.41,-3.23 1.41,-5.2l0 -21.98c0,-2.11 -0.47,-3.91 -1.41,-5.41 -0.93,-1.5 -2.18,-2.73 -3.72,-3.69 -1.55,-0.96 -3.3,-1.66 -5.27,-2.11 -1.97,-0.44 -3.96,-0.66 -5.97,-0.66 -2.01,0 -3.99,0.23 -5.93,0.7 -1.95,0.47 -3.67,1.19 -5.17,2.18 -1.5,0.98 -2.71,2.21 -3.65,3.68 -0.94,1.48 -1.41,3.25 -1.41,5.31l0 21.98zm78.47 -35.82l2.74 0 0 49.73 -4.01 0 -28.24 -45.52 0 45.52 -2.74 0 0 -49.73 3.45 0 28.8 46.29 0 -46.29zm46.15 2.74l-16.58 0 0 46.99 -2.74 0 0 -46.99 -16.58 0 0 -2.74 35.9 0 0 2.74zm4.49 11.1c0,-2.44 0.54,-4.56 1.62,-6.36 1.07,-1.8 2.5,-3.31 4.28,-4.53 1.78,-1.22 3.81,-2.13 6.08,-2.74 2.27,-0.61 4.6,-0.91 6.99,-0.91 2.38,0 4.71,0.3 6.99,0.91 2.27,0.61 4.29,1.52 6.07,2.74 1.78,1.22 3.22,2.73 4.32,4.53 1.1,1.8 1.65,3.92 1.65,6.36l0 21.98c0,2.44 -0.55,4.57 -1.65,6.4 -1.1,1.82 -2.54,3.34 -4.32,4.56 -1.78,1.22 -3.8,2.13 -6.07,2.74 -2.28,0.61 -4.61,0.91 -6.99,0.91 -2.39,0 -4.72,-0.3 -6.99,-0.91 -2.27,-0.61 -4.3,-1.52 -6.08,-2.74 -1.78,-1.22 -3.21,-2.74 -4.28,-4.56 -1.08,-1.83 -1.62,-3.96 -1.62,-6.4l0 -21.98zm2.74 21.98c0,1.97 0.47,3.7 1.41,5.2 0.93,1.5 2.15,2.74 3.65,3.73 1.5,0.98 3.22,1.72 5.16,2.21 1.94,0.49 3.95,0.73 6.01,0.73 2.01,0 4,-0.24 5.97,-0.73 1.96,-0.49 3.71,-1.23 5.23,-2.21 1.52,-0.99 2.75,-2.23 3.69,-3.73 0.93,-1.5 1.4,-3.23 1.4,-5.2l0 -21.98c0,-2.11 -0.47,-3.91 -1.4,-5.41 -0.94,-1.5 -2.18,-2.73 -3.72,-3.69 -1.55,-0.96 -3.31,-1.66 -5.27,-2.11 -1.97,-0.44 -3.96,-0.66 -5.97,-0.66 -2.02,0 -4,0.23 -5.94,0.7 -1.94,0.47 -3.66,1.19 -5.16,2.18 -1.5,0.98 -2.72,2.21 -3.65,3.68 -0.94,1.48 -1.41,3.25 -1.41,5.31l0 21.98zm46.22 13.91l0 -49.73 2.74 0 0 46.99 24.87 0 0 2.74 -27.61 0zm31.68 -35.89c0,-2.44 0.54,-4.56 1.62,-6.36 1.07,-1.8 2.5,-3.31 4.28,-4.53 1.78,-1.22 3.81,-2.13 6.08,-2.74 2.27,-0.61 4.6,-0.91 6.99,-0.91 2.38,0 4.71,0.3 6.99,0.91 2.27,0.61 4.29,1.52 6.07,2.74 1.78,1.22 3.22,2.73 4.32,4.53 1.1,1.8 1.65,3.92 1.65,6.36l0 21.98c0,2.44 -0.55,4.57 -1.65,6.4 -1.1,1.82 -2.54,3.34 -4.32,4.56 -1.78,1.22 -3.8,2.13 -6.07,2.74 -2.28,0.61 -4.61,0.91 -6.99,0.91 -2.39,0 -4.72,-0.3 -6.99,-0.91 -2.27,-0.61 -4.3,-1.52 -6.08,-2.74 -1.78,-1.22 -3.21,-2.74 -4.28,-4.56 -1.08,-1.83 -1.62,-3.96 -1.62,-6.4l0 -21.98zm2.74 21.98c0,1.97 0.47,3.7 1.4,5.2 0.94,1.5 2.16,2.74 3.66,3.73 1.5,0.98 3.22,1.72 5.16,2.21 1.94,0.49 3.95,0.73 6.01,0.73 2.01,0 4,-0.24 5.97,-0.73 1.96,-0.49 3.71,-1.23 5.23,-2.21 1.52,-0.99 2.75,-2.23 3.69,-3.73 0.93,-1.5 1.4,-3.23 1.4,-5.2l0 -21.98c0,-2.11 -0.47,-3.91 -1.4,-5.41 -0.94,-1.5 -2.18,-2.73 -3.73,-3.69 -1.54,-0.96 -3.3,-1.66 -5.26,-2.11 -1.97,-0.44 -3.96,-0.66 -5.97,-0.66 -2.02,0 -4,0.23 -5.94,0.7 -1.94,0.47 -3.66,1.19 -5.16,2.18 -1.5,0.98 -2.72,2.21 -3.66,3.68 -0.93,1.48 -1.4,3.25 -1.4,5.31l0 21.98zm45.03 -22.12c0,-2.39 0.51,-4.47 1.54,-6.25 1.03,-1.78 2.39,-3.28 4.08,-4.5 1.68,-1.22 3.59,-2.13 5.72,-2.74 2.13,-0.61 4.32,-0.91 6.57,-0.91 1.64,0 3.26,0.16 4.88,0.49 1.62,0.33 3.13,0.82 4.53,1.47 1.41,0.66 2.68,1.48 3.83,2.46 1.15,0.99 2.07,2.16 2.77,3.52l-2.46 1.26c-0.6,-1.12 -1.4,-2.1 -2.38,-2.92 -0.99,-0.82 -2.08,-1.48 -3.27,-2 -1.19,-0.51 -2.48,-0.9 -3.86,-1.16 -1.38,-0.25 -2.78,-0.38 -4.18,-0.38 -1.88,0 -3.71,0.24 -5.52,0.73 -1.8,0.5 -3.4,1.22 -4.81,2.18 -1.4,0.96 -2.54,2.17 -3.4,3.62 -0.87,1.45 -1.3,3.16 -1.3,5.13l0 22.12c0,1.97 0.43,3.69 1.3,5.17 0.86,1.47 2.01,2.7 3.44,3.68 1.43,0.99 3.04,1.73 4.84,2.22 1.81,0.49 3.67,0.73 5.59,0.73 1.87,0 3.72,-0.24 5.55,-0.73 1.82,-0.49 3.46,-1.23 4.91,-2.22 1.46,-0.98 2.62,-2.21 3.48,-3.68 0.87,-1.48 1.3,-3.2 1.3,-5.17l0 -7.58 -15.24 0 0 -2.74 17.98 0 0 10.32c0,2.44 -0.51,4.57 -1.54,6.4 -1.04,1.82 -2.39,3.34 -4.08,4.56 -1.69,1.22 -3.6,2.13 -5.76,2.74 -2.15,0.61 -4.35,0.91 -6.6,0.91 -2.25,0 -4.45,-0.3 -6.61,-0.91 -2.15,-0.61 -4.06,-1.52 -5.72,-2.74 -1.66,-1.22 -3.01,-2.74 -4.04,-4.56 -1.03,-1.83 -1.54,-3.96 -1.54,-6.4l0 -22.12zm48.46 36.03l-2.74 0 0 -49.73 2.74 0 0 49.73zm47.56 0l-2.95 0 -6.25 -17.28 -22.27 0 -6.04 17.28 -2.95 0 18.19 -49.73 4 0 18.27 49.73zm-30.49 -20.02l20.37 0 -10.18 -27.67 -10.19 27.67zm55.07 -6.25l25.22 0 0 2.81 -25.22 0 0 20.72 27.33 0 0 2.74 -30.07 0 0 -49.73 30.07 0 0 2.74 -27.33 0 0 20.72zm56.27 26.27l-2.74 0 0 -49.73 2.74 0 0 23.53 30.41 0 0 -23.53 2.74 0 0 49.73 -2.74 0 0 -23.46 -30.41 0 0 23.46zm80.71 0l-2.95 0 -6.26 -17.28 -22.26 0 -6.04 17.28 -2.95 0 18.19 -49.73 4 0 18.27 49.73zm-30.49 -20.02l20.37 0 -10.18 -27.67 -10.19 27.67zm40.32 -1.75l0 21.77 -2.74 0 0 -49.73 18.05 0c2.25,0 4.33,0.27 6.25,0.81 1.92,0.54 3.59,1.37 4.99,2.49 1.41,1.12 2.53,2.58 3.37,4.36 0.85,1.78 1.29,3.88 1.34,6.32 0,2.67 -0.39,4.89 -1.16,6.67 -0.77,1.78 -1.86,3.22 -3.27,4.32 -1.4,1.1 -3.08,1.87 -5.02,2.32 -1.94,0.44 -4.09,0.67 -6.43,0.67l-1.61 0 16.71 21.77 -3.23 0 -16.71 -21.77 -10.54 0zm15.38 -2.39c4.36,0 7.64,-0.87 9.84,-2.6 2.2,-1.73 3.3,-4.71 3.3,-8.92 0,-2.11 -0.33,-3.89 -0.98,-5.34 -0.66,-1.45 -1.56,-2.62 -2.71,-3.51 -1.15,-0.89 -2.54,-1.55 -4.18,-1.97 -1.4,-0.33 -2.95,-0.49 -4.63,-0.49 -0.24,0 -0.45,0 -0.64,0l-15.38 0 0 22.83 15.38 0zm27.68 24.16l-2.74 0 0 -49.73 4.78 0 17.21 39.05 17.27 -39.05 4.64 0 0 49.73 -2.74 0 0 -47.62 -17.7 40.11 -2.95 0 -17.77 -40.18 0 47.69zm52.12 -35.89c0,-2.44 0.54,-4.56 1.61,-6.36 1.08,-1.8 2.51,-3.31 4.29,-4.53 1.78,-1.22 3.8,-2.13 6.08,-2.74 2.27,-0.61 4.6,-0.91 6.98,-0.91 2.39,0 4.72,0.3 6.99,0.91 2.27,0.61 4.3,1.52 6.08,2.74 1.78,1.22 3.22,2.73 4.32,4.53 1.1,1.8 1.65,3.92 1.65,6.36l0 21.98c0,2.44 -0.55,4.57 -1.65,6.4 -1.1,1.82 -2.54,3.34 -4.32,4.56 -1.78,1.22 -3.81,2.13 -6.08,2.74 -2.27,0.61 -4.6,0.91 -6.99,0.91 -2.38,0 -4.71,-0.3 -6.98,-0.91 -2.28,-0.61 -4.3,-1.52 -6.08,-2.74 -1.78,-1.22 -3.21,-2.74 -4.29,-4.56 -1.07,-1.83 -1.61,-3.96 -1.61,-6.4l0 -21.98zm2.74 21.98c0,1.97 0.47,3.7 1.4,5.2 0.94,1.5 2.16,2.74 3.66,3.73 1.49,0.98 3.22,1.72 5.16,2.21 1.94,0.49 3.94,0.73 6,0.73 2.02,0 4.01,-0.24 5.98,-0.73 1.96,-0.49 3.71,-1.23 5.23,-2.21 1.52,-0.99 2.75,-2.23 3.69,-3.73 0.93,-1.5 1.4,-3.23 1.4,-5.2l0 -21.98c0,-2.11 -0.47,-3.91 -1.4,-5.41 -0.94,-1.5 -2.18,-2.73 -3.73,-3.69 -1.54,-0.96 -3.3,-1.66 -5.27,-2.11 -1.96,-0.44 -3.95,-0.66 -5.97,-0.66 -2.01,0 -3.99,0.23 -5.93,0.7 -1.94,0.47 -3.67,1.19 -5.16,2.18 -1.5,0.98 -2.72,2.21 -3.66,3.68 -0.93,1.48 -1.4,3.25 -1.4,5.31l0 21.98zm78.46 -35.82l2.74 0 0 49.73 -4 0 -28.24 -45.52 0 45.52 -2.74 0 0 -49.73 3.44 0 28.8 46.29 0 -46.29zm17.7 49.73l-2.74 0 0 -49.73 2.74 0 0 49.73zm9.41 -49.73l32.46 0 1.47 1.55 -31.61 45.65 30.63 0 0 2.53 -33.23 0 -1.19 -1.61 31.54 -45.59 -30.07 0 0 -2.53zm77.41 49.73l-2.95 0 -6.25 -17.28 -22.27 0 -6.04 17.28 -2.95 0 18.19 -49.73 4.01 0 18.26 49.73zm-30.48 -20.02l20.37 0 -10.19 -27.67 -10.18 27.67zm53.52 17.98c1.41,0 2.79,-0.14 4.15,-0.42 1.35,-0.28 2.65,-0.68 3.89,-1.19 1.25,-0.52 2.37,-1.17 3.38,-1.97 1,-0.79 1.83,-1.73 2.49,-2.81l2.39 1.2c-0.61,1.17 -1.4,2.2 -2.36,3.09 -0.96,0.89 -2.03,1.66 -3.23,2.32 -1.19,0.65 -2.47,1.18 -3.83,1.58 -1.35,0.39 -2.73,0.66 -4.14,0.8l-2.18 4.01c1.78,0 3.16,0.49 4.15,1.47 0.79,0.75 1.19,1.71 1.19,2.88 0,0.33 -0.02,0.68 -0.07,1.06 -0.33,1.78 -1.12,3 -2.39,3.68 -1.26,0.68 -2.64,1.02 -4.14,1.02 -1.31,0 -2.44,-0.18 -3.37,-0.56 -0.94,-0.37 -1.81,-0.82 -2.6,-1.33l0.42 -1.97c0.89,0.51 1.76,0.94 2.6,1.26 0.84,0.33 1.73,0.5 2.67,0.5 0.93,0 1.81,-0.18 2.63,-0.53 0.82,-0.35 1.35,-1.09 1.58,-2.21 0.19,-0.85 0.12,-1.51 -0.21,-2.01 -0.33,-0.49 -0.77,-0.85 -1.33,-1.09 -0.56,-0.23 -1.19,-0.33 -1.86,-0.31 -0.68,0.02 -1.28,0.1 -1.8,0.25l-0.42 -0.57 2.88 -5.41 -0.49 0c-2.2,0 -4.38,-0.3 -6.53,-0.91 -2.16,-0.61 -4.08,-1.51 -5.76,-2.7 -1.69,-1.2 -3.05,-2.7 -4.08,-4.5 -1.03,-1.8 -1.54,-3.9 -1.54,-6.29l0 -22.33c0,-2.39 0.53,-4.47 1.58,-6.25 1.05,-1.78 2.42,-3.28 4.11,-4.5 1.68,-1.22 3.62,-2.13 5.79,-2.74 2.18,-0.61 4.39,-0.91 6.64,-0.91 1.64,0 3.27,0.15 4.88,0.45 1.62,0.31 3.14,0.79 4.57,1.44 1.43,0.66 2.72,1.48 3.86,2.46 1.15,0.99 2.07,2.16 2.78,3.51l-2.46 1.27c-0.66,-1.03 -1.48,-1.96 -2.46,-2.78 -0.98,-0.81 -2.08,-1.48 -3.3,-2 -1.22,-0.51 -2.52,-0.91 -3.9,-1.19 -1.38,-0.28 -2.77,-0.42 -4.18,-0.42 -1.87,0 -3.72,0.24 -5.55,0.73 -1.82,0.5 -3.45,1.22 -4.88,2.18 -1.43,0.96 -2.58,2.17 -3.44,3.62 -0.87,1.45 -1.3,3.16 -1.3,5.13l0 22.33c0,1.97 0.43,3.68 1.3,5.13 0.86,1.45 2.01,2.66 3.44,3.62 1.43,0.96 3.06,1.69 4.88,2.18 1.83,0.49 3.68,0.73 5.55,0.73zm35.61 -58.93c0.89,0 1.67,0.21 2.32,0.63 0.8,0.47 1.54,1 2.22,1.58 0.67,0.59 1.33,1.13 1.96,1.62 0.63,0.49 1.3,0.71 2,0.67 1.78,-0.14 2.86,-1.39 3.24,-3.73l1.96 0.5c-0.09,1.54 -0.57,2.83 -1.44,3.86 -0.86,1.03 -2.05,1.59 -3.55,1.68 -0.09,0 -0.18,0 -0.28,0 -0.79,0 -1.54,-0.21 -2.24,-0.63 -0.75,-0.47 -1.46,-0.99 -2.11,-1.58 -0.66,-0.58 -1.34,-1.13 -2.04,-1.65 -0.61,-0.42 -1.26,-0.63 -1.96,-0.63 -0.1,0 -0.17,0 -0.22,0 -0.75,0.05 -1.42,0.39 -2.03,1.02 -0.61,0.63 -1.01,1.55 -1.2,2.77l-1.89 -0.56c0.09,-1.73 0.64,-3.07 1.65,-4 1,-0.94 2.12,-1.46 3.33,-1.55 0.1,0 0.19,0 0.28,0zm24.38 60.97l-2.95 0 -6.25 -17.28 -22.27 0 -6.04 17.28 -2.95 0 18.19 -49.73 4.01 0 18.26 49.73zm-30.49 -20.02l20.37 0 -10.18 -27.67 -10.19 27.67zm35.41 -15.87c0,-2.44 0.53,-4.56 1.61,-6.36 1.08,-1.8 2.51,-3.31 4.29,-4.53 1.78,-1.22 3.8,-2.13 6.07,-2.74 2.27,-0.61 4.6,-0.91 6.99,-0.91 2.39,0 4.72,0.3 6.99,0.91 2.27,0.61 4.3,1.52 6.08,2.74 1.78,1.22 3.22,2.73 4.32,4.53 1.1,1.8 1.65,3.92 1.65,6.36l0 21.98c0,2.44 -0.55,4.57 -1.65,6.4 -1.1,1.82 -2.54,3.34 -4.32,4.56 -1.78,1.22 -3.81,2.13 -6.08,2.74 -2.27,0.61 -4.6,0.91 -6.99,0.91 -2.39,0 -4.72,-0.3 -6.99,-0.91 -2.27,-0.61 -4.29,-1.52 -6.07,-2.74 -1.78,-1.22 -3.21,-2.74 -4.29,-4.56 -1.08,-1.83 -1.61,-3.96 -1.61,-6.4l0 -21.98zm2.74 21.98c0,1.97 0.46,3.7 1.4,5.2 0.94,1.5 2.15,2.74 3.65,3.73 1.5,0.98 3.22,1.72 5.17,2.21 1.94,0.49 3.94,0.73 6,0.73 2.02,0 4.01,-0.24 5.97,-0.73 1.97,-0.49 3.71,-1.23 5.24,-2.21 1.52,-0.99 2.75,-2.23 3.68,-3.73 0.94,-1.5 1.41,-3.23 1.41,-5.2l0 -21.98c0,-2.11 -0.47,-3.91 -1.41,-5.41 -0.93,-1.5 -2.17,-2.73 -3.72,-3.69 -1.54,-0.96 -3.3,-1.66 -5.27,-2.11 -1.96,-0.44 -3.95,-0.66 -5.97,-0.66 -2.01,0 -3.99,0.23 -5.93,0.7 -1.95,0.47 -3.67,1.19 -5.17,2.18 -1.5,0.98 -2.71,2.21 -3.65,3.68 -0.94,1.48 -1.4,3.25 -1.4,5.31l0 21.98zm65.53 -33.08l0 21.7 24.24 0 0 2.74 -24.24 0 0 22.48 -2.74 0 0 -49.66 29.65 0 0 2.74 -26.91 0zm66.17 46.99l-2.95 0 -6.25 -17.28 -22.27 0 -6.04 17.28 -2.95 0 18.19 -49.73 4.01 0 18.26 49.73zm-30.48 -20.02l20.37 0 -10.19 -27.67 -10.18 27.67zm35.61 -16.01c0,-2.39 0.53,-4.47 1.58,-6.25 1.05,-1.78 2.42,-3.28 4.11,-4.5 1.68,-1.22 3.62,-2.13 5.79,-2.74 2.18,-0.61 4.39,-0.91 6.64,-0.91 1.64,0 3.27,0.15 4.88,0.45 1.62,0.31 3.14,0.79 4.57,1.44 1.43,0.66 2.72,1.48 3.86,2.46 1.15,0.99 2.08,2.16 2.78,3.51l-2.46 1.27c-0.66,-1.03 -1.48,-1.96 -2.46,-2.78 -0.98,-0.81 -2.08,-1.48 -3.3,-2 -1.22,-0.51 -2.52,-0.91 -3.9,-1.19 -1.38,-0.28 -2.77,-0.42 -4.18,-0.42 -1.87,0 -3.72,0.24 -5.55,0.73 -1.82,0.5 -3.45,1.22 -4.88,2.18 -1.43,0.96 -2.58,2.17 -3.44,3.62 -0.87,1.45 -1.3,3.16 -1.3,5.13l0 22.33c0,1.97 0.43,3.68 1.3,5.13 0.86,1.45 2.01,2.66 3.44,3.62 1.43,0.96 3.06,1.69 4.88,2.18 1.83,0.49 3.68,0.73 5.55,0.73 1.41,0 2.79,-0.14 4.15,-0.42 1.35,-0.28 2.65,-0.68 3.89,-1.19 1.25,-0.52 2.37,-1.17 3.38,-1.97 1,-0.79 1.83,-1.73 2.49,-2.81l2.39 1.2c-0.7,1.36 -1.64,2.53 -2.81,3.51 -1.17,0.98 -2.48,1.8 -3.94,2.46 -1.45,0.65 -2.98,1.14 -4.6,1.47 -1.61,0.33 -3.26,0.49 -4.95,0.49 -2.2,0 -4.38,-0.3 -6.53,-0.91 -2.16,-0.61 -4.07,-1.51 -5.76,-2.7 -1.69,-1.2 -3.04,-2.7 -4.08,-4.5 -1.03,-1.8 -1.54,-3.9 -1.54,-6.29l0 -22.33zm45.31 36.03l-2.74 0 0 -49.73 2.74 0 0 49.73zm47.55 0l-2.95 0 -6.25 -17.28 -22.27 0 -6.04 17.28 -2.95 0 18.19 -49.73 4.01 0 18.26 49.73zm-30.48 -20.02l20.37 0 -10.19 -27.67 -10.18 27.67zm37.57 20.02l0 -49.73 2.74 0 0 46.99 24.87 0 0 2.74 -27.61 0z"/>
 </g>
</svg>
